<?xml version="1.0" standalone="no"?>
<!DOCTYPE svg PUBLIC "-//W3C//DTD SVG 1.1//EN" "http://www.w3.org/Graphics/SVG/1.1/DTD/svg11.dtd" >
<svg xmlns="http://www.w3.org/2000/svg">
<metadata>
Created by FontPrep 20130207 at Wed Dec  4 10:55:51 2013
 By Mark Rickert
Copyright (c) 2010 - 2012, Matt McInerney (matt@pixelspread.com), Pablo Impallari(impallari@gmail.com), Rodrigo Fuenzalida (hello@rfuenzalida.com) with Reserved Font Name "Raleway"
</metadata>
<defs>
<font id="9d88af5bcbe5cc0ab85ffc4f0a7265cc" horiz-adv-x='1024' >
  <font-face 
    font-family="Raleway-Thin"
    font-weight="400"
    font-stretch="normal"
    units-per-em="2048"
    panose-1="0 0 5 0 0 0 0 0 0 0"
    ascent="1638"
    descent="-410"
    x-height="1063"
    cap-height="1452"
    bbox="-465 -457 2376 1925"
    underline-thickness="102"
    underline-position="0"
    unicode-range="U+000D-FB06"
  />
<missing-glyph horiz-adv-x="0" 
 />
    <glyph glyph-name=".notdef" horiz-adv-x="0" 
 />
    <glyph glyph-name=".null" horiz-adv-x="0" 
 />
    <glyph glyph-name="nonmarkingreturn" unicode="&#xd;" horiz-adv-x="0" 
 />
    <glyph glyph-name="NULL" horiz-adv-x="0" 
 />
    <glyph glyph-name="NULL" horiz-adv-x="0" 
 />
    <glyph glyph-name="space" unicode=" " horiz-adv-x="550" 
 />
    <glyph glyph-name="exclam" unicode="!" horiz-adv-x="430" 
d="M236 172v-172h-41v172h41zM236 1468v-1058h-41v1058h41z" />
    <glyph glyph-name="quotedbl" unicode="&#x22;" horiz-adv-x="413" 
d="M279 1454v-172h-41v172h41zM176 1454v-172h-41v172h41z" />
    <glyph glyph-name="numbersign" unicode="#" horiz-adv-x="1341" 
d="M485 985l-118 -491h491l119 491h-492zM1178 494v-41h-289l-109 -453h-43l111 453h-492l-108 -453h-43l110 453h-231v41h242l118 491h-278v41h289l104 428h43l-106 -428h491l105 428h43l-107 -428h232v-41h-242l-119 -491h279z" />
    <glyph glyph-name="dollar" unicode="$" horiz-adv-x="1236" 
d="M639 25q213 -1 344 83t131 245t-133 245q-98 55 -342 109v-682zM168 1073q0 -82 27 -129q46 -99 213 -141q80 -25 190 -49v669q-430 -19 -430 -350zM1006 627q149 -83 149 -265t-141 -278t-375 -94v-180h-41v180q-174 4 -294 60t-226 165l31 27q189 -213 489 -217v690
q-254 52 -344 110q-127 75 -127 252q0 175 127 275t344 110v207h41v-205q143 -4 243 -43t185 -131l-27 -28q-86 94 -181 129t-220 34v-682q106 -25 203 -49q90 -27 164 -67z" />
    <glyph glyph-name="percent" unicode="%" horiz-adv-x="1382" 
d="M998 20q50 0 96 19q89 45 127 131q18 43 18 92t-18 94q-44 85 -131 129q-98 39 -187 0q-93 -45 -129 -131q-18 -47 -18 -96t20 -92q37 -90 128 -128q44 -18 94 -18zM799 61q-86 86 -85 203t84 199q82 82 198 82t202 -82q82 -86 82 -200t-82 -202q-81 -81 -203 -81
q-123 0 -196 81zM387 950q96 0 167 71t73 171q0 49 -19 96q-47 91 -131 127q-153 58 -264 -53q-68 -68 -70 -170q0 -53 21 -94q36 -92 128 -130q44 -18 95 -18zM1278 1432l-1143 -1434l-33 25l1143 1433zM186 993q-84 76 -84 196t83 203t199 83t202 -82q82 -86 82 -202
t-83 -199t-203 -83t-196 84z" />
    <glyph glyph-name="ampersand" unicode="&#x26;" horiz-adv-x="1310" 
d="M559 16q135 0 243 66t179 172l-500 522q-86 -61 -135 -98q-111 -84 -170 -205q-26 -55 -26 -135t38 -140q76 -122 228 -161q67 -21 143 -21zM290 1275q-24 -46 -24 -108t50 -141q50 -78 171 -205q172 113 252 193q43 47 68 92t24 100q0 96 -73 162q-76 63 -193 64
q-68 0 -116 -21q-111 -42 -159 -136zM1151 682q0 -231 -121 -424l250 -258h-55l-217 225q-76 -109 -192 -177t-263 -68q-86 0 -161 22q-171 50 -245 188q-39 66 -39 149q1 144 103 261q70 79 246 201q-131 139 -181 217q-49 77 -50 147q-2 128 101 218t236 90t223 -78
q88 -80 87 -187t-98 -205q-97 -99 -263 -206l492 -510q106 179 106 395h41z" />
    <glyph glyph-name="quotesingle" unicode="'" horiz-adv-x="270" 
d="M156 1454v-131h-41v131h41z" />
    <glyph glyph-name="parenleft" unicode="(" horiz-adv-x="489" 
d="M106 707q0 182 80 401q39 102 88 190q39 78 105 189l33 -25q-108 -157 -165 -310q-57 -154 -77 -255q-25 -103 -25 -189q1 -86 17 -170q41 -207 137 -380q55 -106 113 -187l-33 -24q-273 402 -273 760z" />
    <glyph glyph-name="parenright" unicode=")" horiz-adv-x="489" 
d="M383 707q0 -358 -272 -760l-33 24q51 72 128 216t122 345q16 94 16 175t-32 229t-136 362q-51 96 -98 164l33 25q136 -234 184 -359q47 -124 67 -218t21 -203z" />
    <glyph glyph-name="asterisk" unicode="*" horiz-adv-x="628" 
d="M293 1454h41v-143l137 45l12 -39l-137 -45l86 -117l-35 -25l-84 117l-84 -117l-32 25l84 117l-138 45l13 39l137 -45v143z" />
    <glyph glyph-name="plus" unicode="+" horiz-adv-x="847" 
d="M444 707v-308h-41v308h-286v41h286v307h41v-307h287v-41h-287z" />
    <glyph glyph-name="comma" unicode="," horiz-adv-x="372" 
d="M145 -68v41q27 0 27 27v131h41v-127q0 -72 -68 -72z" />
    <glyph glyph-name="hyphen" unicode="-" horiz-adv-x="874" 
d="M727 575v-40h-580v40h580z" />
    <glyph glyph-name="period" unicode="." horiz-adv-x="335" 
d="M188 131v-131h-41v131h41z" />
    <glyph glyph-name="slash" unicode="/" horiz-adv-x="1103" 
d="M61 0l932 1454h54l-934 -1454h-52z" />
    <glyph glyph-name="zero" unicode="0" horiz-adv-x="1261" 
d="M631 1182q-103 0 -189 -44q-169 -86 -237 -302q-35 -111 -35 -236q0 -255 129 -418q59 -80 145 -119q84 -43 186 -43q205 0 335 162q127 165 127 416t-127 422q-59 74 -145 118t-189 44zM1133 601q0 -271 -144 -446t-358 -175q-222 0 -359 176q-143 172 -143 445
q0 138 38 250q79 234 263 325q94 47 200 47t201 -47q185 -91 264 -327q38 -114 38 -248z" />
    <glyph glyph-name="one" unicode="1" horiz-adv-x="780" 
d="M143 0v41h291v1061q-16 -27 -49 -50q-181 -126 -289 -126v49q55 0 137 42t168 118l18 18t15 16h41v-1128h260v-41h-592z" />
    <glyph glyph-name="two" unicode="2" horiz-adv-x="1038" 
d="M920 0h-799q0 139 42 236q42 96 113 173t195 130l125 51q78 32 130 68t91 92t39 122t-22 111q-47 99 -162 143q-68 23 -147 23q-173 0 -316 -139q-9 -10 -21 -24t-14 -15l-33 24l27 31q79 84 197 135q73 29 163 29q166 0 275 -96q94 -86 94 -226q0 -72 -42 -136
q-74 -113 -241 -179q-37 -14 -133 -55t-164 -110q-69 -70 -103 -140q-54 -111 -54 -207h760v-41z" />
    <glyph glyph-name="three" unicode="3" horiz-adv-x="1062" 
d="M956 98q0 -90 -30 -164q-72 -152 -230 -206q-82 -29 -174 -29q-156 0 -270 71t-156 191l39 14q36 -106 141 -171q105 -64 266 -64t267 98q108 104 107 268t-107 263q-109 96 -293 96h-45v41h47q180 0 277 78q96 78 96 219t-102 238q-102 98 -250 98t-246 -65t-137 -167
l-37 15q46 121 151 188q101 68 264 69t281 -104q117 -113 117 -254t-83 -233t-216 -105q147 -19 235 -125t88 -260z" />
    <glyph glyph-name="four" unicode="4" horiz-adv-x="1077" 
d="M791 188v906l-691 -906h691zM43 147v35l760 987h28v-981h181v-41h-181v-407h-40v407h-748z" />
    <glyph glyph-name="five" unicode="5" horiz-adv-x="1122" 
d="M561 627q192 0 334 -127q137 -133 137 -333t-143 -343q-143 -129 -352 -129t-367 176q-49 57 -78 123h45q55 -119 165 -189t249 -69q92 0 175 34q160 66 230 222q35 82 35 177q0 183 -125 300t-305 117q-119 0 -223 -52t-170 -149h-49q0 7 6 27t8 34l21 103q4 13 23 115
t29 152t35 169q24 119 38 184h690v-41h-656l-133 -665q152 164 381 164z" />
    <glyph glyph-name="six" unicode="6" horiz-adv-x="1239" 
d="M643 20q94 0 176 35q171 73 246 244q35 86 35 178q0 181 -137 320q-141 135 -326 135t-322 -135q-137 -137 -137 -322q0 -90 37 -174t100 -147q66 -61 148 -99q86 -35 180 -35zM125 536q0 254 38 424q75 338 269 451q96 53 228 53t245 -80q111 -82 158 -221l-39 -14
q-18 59 -55 113q-81 101 -199 143q-61 18 -146 18t-173 -52q-87 -52 -149 -151q-132 -212 -132 -589q50 153 180 248q132 94 295 94q206 0 351 -146t145 -351t-146 -351q-156 -147 -368 -146t-357 152q-145 152 -145 405z" />
    <glyph glyph-name="seven" unicode="7" horiz-adv-x="1089" 
d="M106 1194h943l-746 -1454h-47l725 1413h-875v41z" />
    <glyph glyph-name="eight" unicode="8" horiz-adv-x="1208" 
d="M907 119q142 115 142 279t-148 266q-135 96 -299 96q-165 0 -303 -103q-61 -47 -101 -117t-40 -154q0 -168 147 -269q136 -97 301 -97q80 0 160 25q78 29 141 74zM211 1104q0 -74 37 -129q33 -57 90 -94q123 -80 268 -80t260 82q131 91 129 225q0 74 -32 131
q-72 111 -218 154q-69 20 -145 20q-76 -1 -148 -23q-141 -44 -208 -155q-33 -57 -33 -131zM1090 374q0 -167 -148 -282q-147 -108 -354 -107t-340 124q-61 53 -96 128t-35 151q0 146 103 253q103 108 233 139q-117 41 -200 122t-83 206q0 155 131 252q131 96 305 95
q175 -1 295 -89q135 -104 135 -258q0 -57 -22 -113q-70 -147 -262 -215q227 -69 313 -258q25 -65 25 -148z" />
    <glyph glyph-name="nine" unicode="9" horiz-adv-x="1206" 
d="M586 1128q-92 0 -177 -36t-147 -97q-66 -61 -98 -143q-37 -82 -37 -176t38 -178t98 -144q61 -60 145 -99q84 -38 180 -38q188 0 325 137q61 62 99 146t37 175q0 184 -138 320q-63 61 -147 99q-86 34 -178 34zM1102 615q0 -470 -144 -709q-138 -221 -372 -221
q-147 0 -262 79q-115 84 -160 222l39 18q34 -123 145 -203q101 -75 220 -75q226 0 360 206q129 223 129 586q-50 -151 -180 -248q-132 -94 -295 -94q-204 0 -350 146t-146 351q0 206 146 351t363 145t359 -151q148 -152 148 -403z" />
    <glyph glyph-name="colon" unicode=":" horiz-adv-x="335" 
d="M188 131v-131h-41v131h41zM188 1059v-131h-41v131h41z" />
    <glyph glyph-name="semicolon" unicode=";" horiz-adv-x="376" 
d="M147 -68v41q27 0 27 27v131h41v-127q0 -72 -68 -72zM215 1059v-131h-41v131h41z" />
    <glyph glyph-name="less" unicode="&#x3c;" horiz-adv-x="1032" 
d="M926 1014l-795 -484l795 -485v-45l-854 512v37l854 510v-45z" />
    <glyph glyph-name="equal" unicode="=" horiz-adv-x="911" 
d="M756 514v-41h-600v41h600zM756 657v-41h-600v41h600z" />
    <glyph glyph-name="greater" unicode="&#x3e;" horiz-adv-x="1032" 
d="M106 45l795 485l-795 484v45l855 -510v-37l-855 -512v45z" />
    <glyph glyph-name="question" unicode="?" horiz-adv-x="964" 
d="M408 172v-184h-41v184h41zM408 367h-41q0 252 106 340q37 27 70 43l102 49q47 23 96 61q101 88 101 243t-105 249q-93 78 -226 79t-241 -63q-106 -67 -159 -176l-37 16q25 58 76 112q94 99 223 136q241 55 393 -80q117 -112 117 -278t-107 -260q-47 -39 -139 -84
t-128 -74q-73 -58 -89 -164q-12 -57 -12 -149z" />
    <glyph glyph-name="at" unicode="@" horiz-adv-x="1677" 
d="M1151 356v97q-14 0 -37 8l-59 16q-14 4 -45 9q-30 4 -56 10t-84 6q-218 0 -297 -111q-29 -45 -29 -101q1 -108 77 -166t177 -58q100 0 175 35t110 65q54 54 61 113t7 77zM563 813q168 107 326 107q94 0 158 -35q115 -72 135 -228q10 -82 10 -149v-313q0 -96 20 -140
q18 -47 88 -47t119 49q87 87 115 256q10 86 10 144q0 299 -201 522q-207 215 -487 215q-135 0 -263 -54q-259 -109 -380 -378q-59 -135 -59 -289q0 -303 206 -518q209 -213 505 -213q160 0 300 78l21 -37q-156 -82 -319 -82q-318 0 -535 223q-102 104 -160 246t-59 306
q0 165 63 304q122 278 402 400q130 55 280 55t283 -61t231 -166q96 -106 154 -248t59 -302q0 -161 -41 -283t-133 -181q-45 -27 -105 -27q-60 1 -86 15q-48 26 -60 91q-13 66 -15 99q-53 -59 -143 -103t-180 -44q-228 0 -296 157q-22 49 -22 115q1 125 119 192q98 52 246 53
q147 1 284 -46q0 182 -55 276q-69 107 -223 107t-287 -99z" />
    <glyph glyph-name="A" unicode="A" 
d="M1061 561l-361 834l-364 -834h725zM719 1454l633 -1454h-45l-228 520h-760l-227 -520h-45l635 1454h37z" />
    <glyph glyph-name="B" unicode="B" horiz-adv-x="1351" 
d="M881 41q125 -1 225 101q96 98 96 234q0 64 -22 128q-54 127 -162 182q-55 27 -123 27h-647v-672h633zM248 754h590q128 0 219 104q84 97 84 224t-80 233q-84 98 -211 98h-602v-659zM1171 604q72 -103 72 -238t-106 -251q-106 -115 -256 -115h-674v1454h643q78 0 140 -34
q115 -62 169 -201q23 -71 23 -159t-56 -180t-153 -135q119 -36 198 -141z" />
    <glyph glyph-name="C" unicode="C" horiz-adv-x="1437" 
d="M147 721q1 -131 53 -260t136 -219q84 -96 201 -154t254 -59q245 0 426 170q61 61 102 137l39 -10q-70 -155 -242 -252q-72 -41 -165 -64t-169 -22q-145 0 -270 64t-215 172t-139 241q-52 129 -52 265t48 268q99 275 348 401q124 63 306 63t316 -89t199 -228l-39 -12
q-155 288 -500 288q-147 0 -267 -59q-238 -117 -329 -381q-41 -129 -41 -260z" />
    <glyph glyph-name="D" unicode="D" horiz-adv-x="1470" 
d="M1315 730q0 144 -42 272q-83 254 -325 360q-117 51 -274 51h-426v-1372h426q305 0 473 191q168 192 168 498zM207 1454h467q330 0 506 -204t176 -529t-189 -523t-493 -198h-467v1454z" />
    <glyph glyph-name="E" unicode="E" horiz-adv-x="1267" 
d="M207 0v1454h936v-41h-895v-649h784v-41h-784v-682h913v-41h-954z" />
    <glyph glyph-name="F" unicode="F" horiz-adv-x="1220" 
d="M1143 1454v-41h-895v-647h764v-41h-764v-725h-41v1454h936z" />
    <glyph glyph-name="G" unicode="G" horiz-adv-x="1495" 
d="M795 31q293 0 524 274v346h-342v41h383v-692h-41v248q-227 -258 -524 -258q-150 0 -279 66q-256 132 -356 405q-51 129 -51 269t50 273q104 276 345 400q120 61 246 61t216 -22q173 -44 277 -166q51 -66 82 -129l-39 -12q-154 290 -516 288q-143 0 -258 -60t-195 -159
q-167 -196 -167 -482q0 -134 51 -261q101 -251 342 -373q115 -57 252 -57z" />
    <glyph glyph-name="H" unicode="H" horiz-adv-x="1505" 
d="M1257 0v723h-1009v-723h-41v1454h41v-690h1009v690h41v-1454h-41z" />
    <glyph glyph-name="I" unicode="I" horiz-adv-x="454" 
d="M248 1452v-1452h-41v1452h41z" />
    <glyph glyph-name="J" unicode="J" horiz-adv-x="983" 
d="M342 18q153 0 229 50q143 85 168 354q12 129 13 293v737h41v-737q-1 -166 -15 -305q-29 -281 -186 -379q-88 -53 -250 -53t-295 90l23 32q119 -82 272 -82z" />
    <glyph glyph-name="K" unicode="K" horiz-adv-x="1275" 
d="M248 1452v-942l926 944h59l-621 -635l650 -819h-54l-626 791l-334 -338v-453h-41v1452h41z" />
    <glyph glyph-name="L" unicode="L" horiz-adv-x="1210" 
d="M248 1454v-1413h913v-41h-954v1454h41z" />
    <glyph glyph-name="M" unicode="M" horiz-adv-x="1818" 
d="M248 0h-41v1454h33l669 -1118l670 1118h33v-1454h-41v1364l-645 -1077h-33l-645 1077v-1364z" />
    <glyph glyph-name="N" unicode="N" horiz-adv-x="1597" 
d="M207 0v1454h31l1112 -1395v1393h41v-1452h-48l-1095 1374v-1374h-41z" />
    <glyph glyph-name="O" unicode="O" horiz-adv-x="1570" 
d="M150 723q0 -129 47 -255t133 -224q80 -96 198 -154t257 -59q139 0 259 60q237 119 332 382q45 123 45 255t-48 259t-134 223q-191 213 -453 213q-139 0 -258 -59q-236 -121 -332 -385q-46 -127 -46 -256zM109 728q0 142 54 278q109 275 357 399q124 59 270 59t271 -63
q250 -126 352 -406q49 -131 49 -275q0 -283 -194 -507q-206 -223 -488 -223q-148 0 -272 64q-252 132 -350 401q-49 131 -49 273z" />
    <glyph glyph-name="P" unicode="P" horiz-adv-x="1273" 
d="M248 612h565q80 0 148 34t112 93q96 117 95 275t-107 276q-119 123 -262 123h-551v-801zM207 1454h592q86 0 163 -38t132 -99q171 -220 86 -469q-58 -161 -205 -240q-74 -37 -162 -37h-565v-571h-41v1454z" />
    <glyph glyph-name="Q" unicode="Q" horiz-adv-x="1570" 
d="M775 31q230 0 411 157l-154 193h51l131 -166q98 101 152 237t55 272q0 136 -48 263t-134 223q-191 213 -453 213q-139 0 -258 -60q-236 -119 -331 -382q-47 -129 -47 -258t47 -255t133 -224q80 -96 198 -154t247 -59zM109 728q0 142 54 278q109 275 357 399
q124 59 270 59t271 -63q250 -126 352 -406q49 -131 49 -279t-58 -287q-58 -140 -165 -247l147 -182h-51l-125 156q-183 -166 -424 -166q-154 0 -278 64q-252 132 -350 401q-49 131 -49 273z" />
    <glyph glyph-name="R" unicode="R" horiz-adv-x="1329" 
d="M248 612h565q162 0 260 127q96 118 95 275t-107 276q-119 123 -262 123h-551v-801zM207 1454h592q86 0 163 -38t132 -99q173 -222 88 -465q-61 -162 -193 -236q-70 -39 -151 -45l368 -571h-49l-369 571h-540v-571h-41v1454z" />
    <glyph glyph-name="S" unicode="S" horiz-adv-x="1249" 
d="M178 1080q0 -149 109 -220q55 -37 143 -61q76 -25 197 -49q279 -57 397 -127q141 -89 141 -267t-136 -272t-376 -94q-176 0 -311 53t-254 172l31 27q111 -115 239 -166t322 -51q194 1 319 81t125 240t-108 234t-377 129q-123 23 -212 47q-197 54 -257 168q-33 57 -33 150
q0 183 139 290q132 100 381 100q129 0 231 -40t189 -134l-26 -28q-85 94 -181 129t-221 35t-213 -25q-258 -71 -258 -321z" />
    <glyph glyph-name="T" unicode="T" horiz-adv-x="1249" 
d="M645 0h-41v1413h-557v41h1155v-41h-557v-1413z" />
    <glyph glyph-name="U" unicode="U" horiz-adv-x="1558" 
d="M1333 1454h41v-727q0 -503 -311 -676q-113 -61 -285 -61q-316 0 -469 232q-125 189 -125 505v727h41v-727q0 -304 115 -479q145 -217 441 -217t440 221q59 96 88 223q25 127 24 252v727z" />
    <glyph glyph-name="V" unicode="V" horiz-adv-x="1392" 
d="M1307 1454h45l-633 -1454h-45l-633 1454h43l612 -1403z" />
    <glyph glyph-name="W" unicode="W" horiz-adv-x="2129" 
d="M1063 897l237 545h46l-261 -594l349 -797l610 1403h45l-633 -1454h-45l-346 797l-346 -797h-45l-633 1454h45l610 -1403l346 797l-260 594h45z" />
    <glyph glyph-name="X" unicode="X" horiz-adv-x="1271" 
d="M1198 1454h51l-587 -737l571 -717h-51l-545 684l-545 -684h-53l571 717l-587 737h53l561 -704z" />
    <glyph glyph-name="Y" unicode="Y" horiz-adv-x="1284" 
d="M662 0h-41v567l-588 887h47l561 -844l563 844h47l-589 -891v-563z" />
    <glyph glyph-name="Z" unicode="Z" horiz-adv-x="1280" 
d="M70 1413v41h1151v-41l-1110 -1372h1101v-41h-1153v41l1110 1372h-1099z" />
    <glyph glyph-name="bracketleft" unicode="[" horiz-adv-x="430" 
d="M334 1516v-41h-103v-1516h103v-41h-144v1598h144z" />
    <glyph glyph-name="backslash" unicode="\" horiz-adv-x="1062" 
d="M950 0l-893 1454h54l890 -1454h-51z" />
    <glyph glyph-name="bracketright" unicode="]" horiz-adv-x="430" 
d="M199 -41v1516h-103v41h144v-1598h-144v41h103z" />
    <glyph glyph-name="asciicircum" unicode="^" horiz-adv-x="1042" 
d="M541 1454l403 -833h-47l-375 774l-381 -774h-43l406 833h37z" />
    <glyph glyph-name="underscore" unicode="_" horiz-adv-x="899" 
d="M852 0v-41h-805v41h805z" />
    <glyph glyph-name="grave" unicode="`" horiz-adv-x="405" 
d="M303 1346l-33 -25l-168 174h68z" />
    <glyph glyph-name="a" unicode="a" horiz-adv-x="1075" 
d="M422 20q141 0 253 52t167 137q31 43 30 84v211q-160 63 -349 63t-297 -72q-109 -72 -107 -190q0 -59 22 -109q49 -111 162 -153q58 -23 119 -23zM156 940q207 139 375 139t278 -110q106 -110 104 -299v-588q0 -41 33 -41v-41q-41 0 -57 29t-17 53v98q-74 -96 -190 -148
t-260 -52q-74 0 -136 26q-122 50 -182 172q-26 55 -26 126t32 125q68 114 230 157q84 23 176 22q199 0 356 -59v121q0 170 -94 268q-102 102 -258 101t-340 -132z" />
    <glyph glyph-name="b" unicode="b" horiz-adv-x="1234" 
d="M645 20q84 0 169 44q84 44 150 116q134 148 134 348q0 201 -125 355q-135 155 -328 155q-150 0 -262 -94q-106 -83 -172 -215v-387q2 -62 45 -122t102 -103t131 -70t156 -27zM650 -20q-214 0 -361 147q-49 47 -78 94v-221h-41v1495h41v-680q86 117 188 191q109 74 236 74
q226 -1 375 -177q129 -168 129 -375q0 -111 -39 -206q-82 -204 -270 -296q-92 -46 -180 -46z" />
    <glyph glyph-name="c" unicode="c" horiz-adv-x="1105" 
d="M96 540q0 114 40 214q79 198 272 284q94 41 214 41t228 -61q106 -66 158 -176l-41 -15q-51 94 -150 156q-97 55 -207 55q-195 0 -338 -145q-135 -146 -135 -356t140 -363q140 -154 331 -154q190 0 324 140q37 39 49 84l41 -13q-36 -107 -154 -178q-53 -33 -120 -55
q-68 -18 -156 -18t-181 44t-163 119q-152 165 -152 397z" />
    <glyph glyph-name="d" unicode="d" horiz-adv-x="1236" 
d="M137 528q-1 -200 139 -355q66 -73 150 -113t166 -40q149 0 282 99q59 41 105 102q43 61 45 125v383q-36 115 -176 219q-132 92 -246 91t-199 -44q-172 -98 -233 -280q-33 -90 -33 -187zM584 -20q-82 0 -176 45t-164 123q-148 166 -148 384t142 381q59 72 151 119
q91 47 185 47t152 -19q116 -38 222 -142q37 -41 76 -103v680h41v-1413q0 -41 33 -41v-41q-40 0 -57 30t-17 52v139q-35 -55 -80 -96q-146 -145 -360 -145z" />
    <glyph glyph-name="e" unicode="e" horiz-adv-x="1183" 
d="M922 901q-137 137 -324 137t-317 -139q-132 -132 -144 -350h930q-11 206 -145 352zM590 -20q-88 0 -178 43t-163 121t-113 180q-40 104 -40 217q0 226 147 382t354 156t364 -159q149 -162 149 -390v-22h-973q10 -102 51 -194q78 -177 248 -255q80 -39 156 -39
q135 0 248 64q43 23 86 66t65 94l39 -11q-18 -49 -62 -98q-80 -89 -223 -137q-67 -18 -155 -18z" />
    <glyph glyph-name="f" unicode="f" horiz-adv-x="655" 
d="M260 938h318v-41h-318v-897h-41v897h-153v41h153v168q0 197 74 303t207 107q61 0 115 -21t79 -49l-32 -25q-54 54 -165 55q-112 0 -174 -94t-63 -276v-168z" />
    <glyph glyph-name="g" unicode="g" horiz-adv-x="1234" 
d="M137 528q-1 -200 139 -355q66 -73 150 -113t171 -40q152 0 290 107q53 43 94 103t43 116v383q-50 136 -174 221q-131 88 -284 88q-87 0 -168 -45t-139 -117t-90 -164t-32 -184zM1024 -45v266q-105 -166 -295 -225q-63 -16 -145 -16t-176 45t-164 123t-109 177t-39 204
t35 203q75 210 260 302q89 45 181 45q92 1 153 -21t117 -54q96 -69 182 -189v248h41v-1108q0 -194 -134 -303t-329 -109q-194 0 -302 71t-165 183l39 13q123 -226 422 -226q86 0 165 24q162 49 230 185q33 68 33 162z" />
    <glyph glyph-name="h" unicode="h" horiz-adv-x="1150" 
d="M954 0v592q0 446 -295 446q-148 0 -276 -106q-131 -103 -172 -260v-672h-41v1495h41v-707q70 132 188 213q123 78 258 78q166 0 252 -123t86 -364v-592h-41z" />
    <glyph glyph-name="i" unicode="i" horiz-adv-x="380" 
d="M211 1063v-1063h-41v1063h41zM211 1495v-158h-41v158h41z" />
    <glyph glyph-name="j" unicode="j" horiz-adv-x="380" 
d="M-233 -254q56 -53 157 -53t172 67q74 64 74 166v1137h41v-1137q0 -115 -87 -194q-87 -80 -185 -80q-136 0 -205 69zM211 1495v-158h-41v158h41z" />
    <glyph glyph-name="k" unicode="k" horiz-adv-x="1036" 
d="M211 0h-41v1495h41v-1094l725 658h55l-461 -422l471 -637h-49l-452 608l-289 -262v-346z" />
    <glyph glyph-name="l" unicode="l" horiz-adv-x="460" 
d="M343 -10q-71 0 -117 46t-46 122v1337h41v-1337q0 -59 37 -95q39 -35 100 -35t111 19l14 -33q-69 -24 -140 -24z" />
    <glyph glyph-name="m" unicode="m" horiz-adv-x="1855" 
d="M1657 0v592q0 231 -70 339t-215 107q-152 0 -263 -103q-112 -103 -155 -265v-670h-41v592q0 231 -67 340q-68 106 -215 106t-265 -105t-155 -261v-672h-41v1063h41v-275q72 136 178 214q107 78 237 78t217 -85q87 -84 103 -225q160 309 426 309q166 1 246 -119t80 -368
v-592h-41z" />
    <glyph glyph-name="n" unicode="n" horiz-adv-x="1153" 
d="M954 0v592q0 234 -63 340t-214 106t-286 -104q-63 -49 -111 -119t-69 -143v-672h-41v1063h41v-275q64 125 197 211q135 80 286 80q150 1 226 -117t75 -370v-592h-41z" />
    <glyph glyph-name="o" unicode="o" horiz-adv-x="1204" 
d="M137 525q0 -103 37 -196t100 -159q56 -66 144 -108t181 -42t180 41q174 82 251 273q37 92 37 195q0 206 -137 358q-138 151 -328 151q-92 0 -178 -41q-172 -79 -249 -273q-38 -96 -38 -199zM602 -20q-106 0 -198 44t-158 119q-68 72 -109 175t-41 211t41 210
q81 202 271 297q92 43 194 43t196 -45t162 -122q148 -167 148 -387t-147 -382q-150 -163 -359 -163z" />
    <glyph glyph-name="p" unicode="p" horiz-adv-x="1234" 
d="M1098 531q0 97 -38 191q-77 191 -249 275q-88 41 -169 41q-148 0 -282 -98q-63 -47 -102 -104q-45 -59 -47 -123v-383q58 -137 180 -223q122 -87 271 -87q90 0 172 44q162 87 233 280q31 90 31 187zM211 838q165 241 441 241q84 0 179 -47q186 -92 271 -303
q37 -99 37 -203t-35 -204q-76 -208 -252 -296q-94 -46 -188 -46q-149 0 -273 79q-101 62 -180 185v-680h-41v1499h41v-225z" />
    <glyph glyph-name="q" unicode="q" horiz-adv-x="1234" 
d="M581 20q149 0 263 89t180 221v383q-12 122 -147 227q-123 98 -285 98q-88 0 -174 -44q-172 -88 -246 -279q-35 -93 -35 -189t35 -189q74 -197 238 -274q82 -43 171 -43zM96 528q0 104 42 208q83 207 272 298q90 45 176 45q147 0 262 -69q121 -79 176 -172v225h41v-1417
q0 -41 33 -41v-41q-49 0 -62 35q-12 20 -12 47v598q-183 -264 -434 -264q-216 0 -355 167q-139 168 -139 381z" />
    <glyph glyph-name="r" unicode="r" horiz-adv-x="665" 
d="M625 1063v-41q-154 -6 -260 -98q-111 -92 -154 -252v-672h-41v1063h41v-275q55 113 149 186t197 85q27 0 39 4h29z" />
    <glyph glyph-name="s" unicode="s" horiz-adv-x="964" 
d="M481 -20q-248 0 -405 172l30 26q82 -78 170 -118t226 -40q137 0 235 68q99 68 99 181t-97 171q-61 36 -221 75q-159 38 -214 52q-182 46 -179 211q0 150 113 230q102 71 290 71q100 0 193 -45q92 -45 125 -108l-37 -17q-39 63 -126 97t-174 32q-244 -1 -316 -137
q-27 -47 -27 -107q0 -111 72 -153q52 -31 187 -64q136 -33 215 -55q153 -42 208 -123q29 -47 29 -115q0 -135 -109 -221q-107 -83 -287 -83z" />
    <glyph glyph-name="t" unicode="t" horiz-adv-x="604" 
d="M410 -10q-91 0 -145 46t-54 118v868h-154v41h154v371h41v-371h256v-41h-256v-868q0 -60 45 -92t98 -31q101 0 172 51l23 -33q-89 -59 -180 -59z" />
    <glyph glyph-name="u" unicode="u" horiz-adv-x="1175" 
d="M500 -20q-342 0 -342 487v596h41v-596q0 -446 301 -447q152 0 284 105q129 99 179 262v676h41v-981q0 -41 32 -41v-41q-41 0 -57 29t-16 53v188q-72 -138 -197 -214t-266 -76z" />
    <glyph glyph-name="v" unicode="v" horiz-adv-x="1064" 
d="M96 1063l436 -1004l437 1004h45l-463 -1063h-37l-463 1063h45z" />
    <glyph glyph-name="w" unicode="w" horiz-adv-x="1626" 
d="M1110 0h-37l-260 596l-260 -596h-37l-465 1063h45l439 -1004l256 588l-179 414h43l158 -361l158 361h43l-178 -414l256 -588l438 1004h45z" />
    <glyph glyph-name="x" unicode="x" horiz-adv-x="983" 
d="M492 559l16 25l383 479h53l-426 -535l422 -528h-53l-379 475l-16 25l-17 -25l-379 -475h-53l422 528l-426 535h53l383 -479z" />
    <glyph glyph-name="y" unicode="y" horiz-adv-x="1107" 
d="M264 -457v41q25 0 62 4q25 6 34 17l13 20q4 8 13 27l67 151q35 78 86 197l-494 1063h45l469 -1012l445 1012h45l-633 -1444q-25 -55 -69 -65t-83 -11z" />
    <glyph glyph-name="z" unicode="z" horiz-adv-x="989" 
d="M74 1022v41h852v-41l-809 -981h801v-41h-855v41l811 981h-800z" />
    <glyph glyph-name="braceleft" unicode="{" horiz-adv-x="438" 
d="M190 623q0 93 -61 96v41q45 0 59 71q2 10 2 21v602q0 43 20 52t28 10h106v-41h-113v-641q-2 -8 -8 -38t-35 -59q33 -27 39 -65l4 -49v-646h113v-40h-106q-16 0 -32 13t-16 48v625z" />
    <glyph glyph-name="bar" unicode="|" horiz-adv-x="413" 
d="M227 1587v-1853h-41v1853h41z" />
    <glyph glyph-name="braceright" unicode="}" horiz-adv-x="438" 
d="M207 852v623h-113v41h107q4 0 25 -10t22 -52v-602q0 -52 19 -72t42 -20v-41q-61 -3 -61 -96v-625q0 -35 -15 -49q-16 -12 -32 -12h-107v40h113v646q0 80 43 114q-41 41 -41 97q-2 8 -2 18z" />
    <glyph glyph-name="asciitilde" unicode="~" horiz-adv-x="958" 
d="M190 514h-40q21 86 94 141q31 25 74 25t83 -18l74 -44q93 -63 148 -63q87 0 139 90q8 14 8 21l41 -2q-30 -83 -96 -127q-35 -23 -87 -23t-99 23t-140 84q-33 18 -65 18t-58 -18q-48 -44 -62 -74q-14 -29 -14 -33z" />
    <glyph glyph-name="uni00A0" unicode="&#xa0;" horiz-adv-x="550" 
 />
    <glyph glyph-name="exclamdown" unicode="&#xa1;" horiz-adv-x="434" 
d="M197 0v1059h41v-1059h-41zM197 1296v172h41v-172h-41z" />
    <glyph glyph-name="cent" unicode="&#xa2;" horiz-adv-x="1120" 
d="M143 523q0 -182 125 -335q127 -147 305 -165v1015q-100 -6 -182 -53q-160 -93 -220 -282q-28 -89 -28 -180zM573 -246v228q-106 10 -193 60t-144 124q-134 158 -134 364t131 373q61 78 149 124t191 52v242h41v-242q156 -2 249 -66t149 -171l-39 -15q-55 105 -151 157
t-208 54v-1018q45 0 111 16t114 45q127 74 148 163l41 -13q-42 -121 -168 -186q-112 -65 -246 -65v-226h-41z" />
    <glyph glyph-name="sterling" unicode="&#xa3;" horiz-adv-x="970" 
d="M401 520q0 82 -51 189h-244v41h224q-16 30 -56 96t-56 96q-48 90 -48 173q0 150 98 251q100 100 236 98q102 0 190 -57t142 -158l-35 -24q-49 94 -130 146t-153 52q-137 0 -220 -84t-83 -198t111 -293q33 -53 53 -98h354v-41h-336q47 -104 47 -214t-42 -189
q-42 -80 -84 -134t-115 -135q75 14 148 14q73 -1 160 -21t151 -20t192 43l12 -39q-108 -45 -206 -45t-164 21q-97 20 -165 20t-188 -24l-20 34q70 76 137 154q109 138 125 201t16 145z" />
    <glyph glyph-name="brokenbar" unicode="&#xa6;" horiz-adv-x="421" 
d="M190 -266v850h41v-850h-41zM190 737v850h41v-850h-41z" />
    <glyph glyph-name="section" unicode="&#xa7;" horiz-adv-x="1015" 
d="M268 870q-63 -63 -63 -193t106 -190q72 -45 230 -59q37 -6 107 -14t114 -25q74 65 75 192t-116 197q-101 53 -235 53q-133 0 -218 39zM180 14q166 -153 332 -153q82 0 143 18q63 23 111 61q108 87 106 212q0 74 -28 120q-58 86 -172 105q-49 8 -128 12q-266 13 -349 172
q-31 57 -31 152t65 178q-51 33 -86 98t-35 147q1 157 125 244q107 84 247 84t214 -38t129 -115l-37 -17q-70 129 -301 129q-132 0 -227 -75q-110 -84 -108 -207q0 -265 339 -269q155 0 267 -67q123 -84 123 -221t-76 -213q57 -35 86 -86q25 -55 25 -133q-1 -151 -126 -248
q-115 -84 -253 -84t-228 50t-157 118z" />
    <glyph glyph-name="dieresis" unicode="&#xa8;" horiz-adv-x="483" 
d="M381 1495v-158h-41v158h41zM143 1495v-158h-41v158h41z" />
    <glyph glyph-name="copyright" unicode="&#xa9;" horiz-adv-x="1708" 
d="M1161 983q-77 176 -318 176q-181 1 -290 -145q-93 -125 -93 -301q0 -90 39 -168q38 -78 97 -133t131 -83t147 -28t173 51q39 18 77 56t58 79l39 -10q-8 -27 -37 -63q-25 -35 -75 -72q-111 -82 -260 -82t-282 123q-147 132 -147 344q0 175 104 320q116 153 328 153
q115 0 212 -50t136 -153zM1550 722q0 297 -196 503q-202 198 -500 198t-498 -198q-92 -92 -145 -222q-53 -129 -53 -277t53 -279t145 -220q192 -200 501 -200q151 0 273 51q124 47 220 140t147 222q53 129 53 282zM854 -14q-326 0 -528 213q-211 211 -211 527q0 161 56 295
q112 267 388 388q135 55 295 55t296 -57q268 -112 388 -387q55 -135 55 -294t-57 -295t-154 -232q-96 -101 -231 -157t-297 -56z" />
    <glyph glyph-name="ordfeminine" unicode="&#xaa;" horiz-adv-x="874" 
d="M425 1100q-117 0 -187 -43t-70 -116t55 -121t123 -48q118 0 210 49q93 49 91 115v125q-104 39 -222 39zM444 1147q104 0 203 -39v72q0 100 -61 161q-63 59 -170 59t-234 -83l-26 41q143 94 272 94t206 -74t77 -204v-351q0 -33 28 -32v-60q-41 0 -60 12t-24 50l-2 59
q-53 -66 -135 -100t-152 -33q-70 0 -112 18q-90 28 -130 117q-39 89 5 168q67 125 315 125z" />
    <glyph glyph-name="guillemotleft" unicode="&#xab;" horiz-adv-x="1077" 
d="M936 850l-447 -320l447 -321v-45l-485 348v37l485 346v-45zM588 850l-447 -320l447 -321v-45l-486 348v37l486 346v-45z" />
    <glyph glyph-name="uni00AD" unicode="&#xad;" horiz-adv-x="1120" 
d="M973 575v-40h-826v40h826z" />
    <glyph glyph-name="registered" unicode="&#xae;" horiz-adv-x="1708" 
d="M600 662h352q152 0 203 151q12 47 12 93q0 101 -61 173q-27 29 -72 54q-43 18 -92 18h-342v-489zM557 1194h385q105 0 193 -90q73 -86 73 -198t-65 -193q-77 -90 -176 -92l239 -373h-49l-237 373h-320v-373h-43v946zM854 27q150 0 276 51q267 109 367 362q53 131 53 286
q0 299 -196 499q-202 198 -500 198t-498 -198q-92 -92 -145 -221t-53 -278q0 -150 53 -280t145 -219q92 -94 220 -147t278 -53zM854 -14q-326 0 -528 213q-211 211 -211 527q0 161 56 295q112 267 388 388q135 55 295 55t296 -57q268 -112 388 -387q55 -135 55 -294
t-57 -295t-154 -232q-96 -101 -231 -157t-297 -56z" />
    <glyph glyph-name="macron" unicode="&#xaf;" horiz-adv-x="778" 
d="M676 1446v-41h-574v41h574z" />
    <glyph glyph-name="degree" unicode="&#xb0;" horiz-adv-x="516" 
d="M258 1442q-43 0 -72 -27q-28 -27 -28 -72t30 -71q27 -31 67 -31t73 29q30 28 30 72t-28 73q-29 27 -72 27zM117 1341q0 59 41 101t100 41q59 0 100 -41q41 -40 41 -100t-41 -101t-100 -41t-100 41t-41 100z" />
    <glyph glyph-name="plusminus" unicode="&#xb1;" horiz-adv-x="925" 
d="M770 215v-41h-614v41h614zM483 707v-308h-41v308h-286v41h286v307h41v-307h287v-41h-287z" />
    <glyph glyph-name="twosuperior" unicode="&#xb2;" horiz-adv-x="757" 
d="M391 1458q-166 0 -266 -123l-31 25l4 4q5 10 20 25q52 52 127 80q74 28 147 28t124 -18q146 -52 150 -205q0 -104 -107 -168q-47 -29 -96 -43l-96 -33q-80 -26 -129 -66q-82 -66 -97 -153q-6 -41 -6 -70h533v-39h-584q0 152 68 232t184 123l90 30q197 65 197 180
q0 78 -58 136q-59 55 -174 55z" />
    <glyph glyph-name="threesuperior" unicode="&#xb3;" horiz-adv-x="778" 
d="M602 752q-87 -60 -217 -60t-212 59t-89 138l33 14q9 -75 82 -119q81 -53 190 -53q107 0 183 48q77 48 77 128t-84 128t-221 48h-45v37h45q135 0 207 41t72 119t-70 129t-168 51q-99 0 -163 -34t-93 -89l-31 25q31 61 106 98q74 37 152 37q135 0 226 -61q84 -64 84 -156
q0 -137 -183 -178q90 -14 152 -70q55 -55 55 -131q0 -43 -22 -84q-23 -35 -66 -65z" />
    <glyph glyph-name="acute" unicode="&#xb4;" horiz-adv-x="405" 
d="M233 1495h70l-168 -174l-33 25z" />
    <glyph glyph-name="paragraph" unicode="&#xb6;" horiz-adv-x="1146" 
d="M694 549h187v864h-187v-864zM653 1413q-262 -1 -399 -113t-137 -320t159 -323q143 -99 377 -108v864zM76 983q0 332 336 438q104 33 241 33h412v-41h-143v-1577h-41v672h-187v-672h-41v672q-274 8 -422 129q-75 55 -115 145t-40 201z" />
    <glyph glyph-name="periodcentered" unicode="&#xb7;" horiz-adv-x="335" 
d="M188 682v-170h-41v170h41z" />
    <glyph glyph-name="onesuperior" unicode="&#xb9;" horiz-adv-x="518" 
d="M100 700v39h170v705q-14 -21 -80 -58q-66 -38 -118 -38v38q60 0 114 42t64 51l20 18h41v-758h160v-39h-371z" />
    <glyph glyph-name="ordmasculine" unicode="&#xba;" horiz-adv-x="925" 
d="M252 866q42 -44 94 -65q52 -25 114 -25q123 0 211 90q89 90 89 219q0 59 -23 121q-52 113 -159 162q-56 25 -116 25q-116 0 -208 -90q-88 -96 -88 -222q0 -124 86 -215zM461 719q-76 0 -143 30t-111 80q-47 47 -76 115t-29 140q0 147 105 259q45 47 112 80q68 29 142 29
q73 0 141 -30q137 -61 195 -195q27 -66 27 -144q-1 -148 -106 -256t-257 -108z" />
    <glyph glyph-name="guillemotright" unicode="&#xbb;" horiz-adv-x="1077" 
d="M489 209l447 321l-447 320v45l486 -346v-37l-486 -348v45zM141 209l447 321l-447 320v45l486 -346v-37l-486 -348v45z" />
    <glyph glyph-name="onequarter" unicode="&#xbc;" horiz-adv-x="1550" 
d="M1313 264v449l-420 -449h420zM836 225v35l489 524h29v-520h112v-39h-112v-225h-41v225h-477zM1391 1432l-1143 -1434l-33 25l1143 1433zM127 700v39h170v705q-12 -18 -84 -62q-66 -34 -115 -34v38q63 0 115 42q53 42 63 51l21 18h41v-758h160v-39h-371z" />
    <glyph glyph-name="onehalf" unicode="&#xbd;" horiz-adv-x="1648" 
d="M967 0v4q0 147 67 227q68 80 185 123q6 2 41 14q34 12 68 23q94 28 151 94q27 33 27 79q-1 81 -58 136q-58 54 -163 55q-183 2 -277 -122l-31 24l2 5q4 4 9 10q51 61 161 102q53 20 126 20t124 -18q149 -54 149 -214q0 -95 -106 -159q-47 -29 -96 -43l-97 -32
q-80 -27 -129 -67q-81 -66 -96 -152q-6 -41 -6 -70h532v-39h-583zM1327 1432l-1143 -1434l-32 25l1142 1433zM137 700v39h170v705q-12 -18 -84 -62q-74 -34 -114 -34v38q60 0 114 42t64 51l20 18h41v-758h160v-39h-371z" />
    <glyph glyph-name="threequarters" unicode="&#xbe;" horiz-adv-x="1585" 
d="M1335 264v449l-420 -449h420zM858 225v35l490 524h28v-520h113v-39h-113v-225h-41v225h-477zM1462 1432l-1143 -1434l-32 25l1143 1433zM400 692q-129 0 -212 59t-90 138l33 14q8 -74 82 -119q81 -53 190 -53q107 0 184 49q36 23 58 56q18 33 19 69q0 82 -84 130t-222 48
h-45v37h45q135 0 207 41t72 119t-70 129t-168 51q-189 0 -256 -123l-30 25q31 61 105 98t152 37q137 0 226 -61q84 -64 84 -156q0 -137 -182 -178q90 -14 151 -70q55 -54 55 -114q1 -103 -87 -165q-88 -61 -217 -61z" />
    <glyph glyph-name="Agrave" unicode="&#xc0;" 
d="M1061 561l-361 834l-364 -834h725zM719 1454l633 -1454h-45l-228 520h-760l-227 -520h-45l635 1454h37zM762 1731l-33 -25l-168 174h68z" />
    <glyph glyph-name="Aacute" unicode="&#xc1;" 
d="M1061 561l-361 834l-364 -834h725zM719 1454l633 -1454h-45l-228 520h-760l-227 -520h-45l635 1454h37zM770 1880h70l-168 -174l-33 25z" />
    <glyph glyph-name="Acircumflex" unicode="&#xc2;" 
d="M1061 561l-361 834l-364 -834h725zM719 1454l633 -1454h-45l-228 520h-760l-227 -520h-45l635 1454h37zM717 1880l190 -151l-33 -25l-174 129l-174 -129l-32 25l190 151h33z" />
    <glyph glyph-name="Atilde" unicode="&#xc3;" 
d="M1061 561l-361 834l-364 -834h725zM719 1454l633 -1454h-45l-228 520h-760l-227 -520h-45l635 1454h37zM702 1821q70 -39 134 -39t96 47q18 24 18 51h41l-4 -29q-32 -108 -157 -108q-79 0 -146 39q-142 79 -199 -4q-14 -20 -16 -35l-4 -21h-41l4 27q2 18 18 45
q39 64 113 65q73 1 143 -38z" />
    <glyph glyph-name="Adieresis" unicode="&#xc4;" 
d="M1061 561l-361 834l-364 -834h725zM719 1454l633 -1454h-45l-228 520h-760l-227 -520h-45l635 1454h37zM840 1880v-158h-41v158h41zM602 1880v-158h-41v158h41z" />
    <glyph glyph-name="Aring" unicode="&#xc5;" 
d="M1061 561l-361 834l-364 -834h725zM719 1454l633 -1454h-45l-228 520h-760l-227 -520h-45l635 1454h37zM700 1847q-33 0 -59 -22q-25 -23 -25 -60t25 -61t57 -25q32 1 59 23q28 22 27 61q0 39 -24 62q-27 22 -60 22zM584 1764q0 48 34 82t83 34q50 0 83 -33t33 -83
t-34 -84t-82 -34t-83 35q-34 35 -34 83z" />
    <glyph glyph-name="AE" unicode="&#xc6;" horiz-adv-x="2045" 
d="M985 561v828l-551 -828h551zM1921 1413h-895v-649h784v-41h-784v-682h913v-41h-954v520h-575l-342 -520h-52l959 1454h946v-41z" />
    <glyph glyph-name="Ccedilla" unicode="&#xc7;" horiz-adv-x="1439" 
d="M930 -215q0 45 -27 61q-58 34 -162 4q-37 -6 -75 -20l90 160q-141 6 -261 71t-206 175q-88 106 -134 238t-46 262t47 262q98 275 348 401q124 63 306 63t316 -89t199 -228l-39 -12q-155 288 -500 288q-147 0 -267 -59q-120 -58 -203 -158q-82 -100 -124 -224t-42 -258
t51 -261t137 -219q84 -96 201 -154t254 -59q245 0 426 170q61 61 102 137l39 -10q-37 -78 -96 -142q-62 -61 -140 -105q-152 -85 -319 -91l-60 -105q30 13 86 13q139 0 140 -111q0 -117 -166 -117q-47 0 -103 10q-41 11 -90 29l21 37q77 -37 187 -37t110 78z" />
    <glyph glyph-name="Egrave" unicode="&#xc8;" horiz-adv-x="1267" 
d="M207 0v1454h936v-41h-895v-649h784v-41h-784v-682h913v-41h-954zM770 1731l-33 -25l-168 174h68z" />
    <glyph glyph-name="Eacute" unicode="&#xc9;" horiz-adv-x="1267" 
d="M207 0v1454h936v-41h-895v-649h784v-41h-784v-682h913v-41h-954zM778 1880h70l-168 -174l-33 25z" />
    <glyph glyph-name="Ecircumflex" unicode="&#xca;" horiz-adv-x="1267" 
d="M207 0v1454h936v-41h-895v-649h784v-41h-784v-682h913v-41h-954zM725 1880l190 -151l-32 -25l-174 129l-174 -129l-33 25l190 151h33z" />
    <glyph glyph-name="Ograve" unicode="&#xd2;" horiz-adv-x="1570" 
d="M150 723q0 -129 47 -255t133 -224q80 -96 198 -154t257 -59q139 0 259 60q237 119 332 382q45 123 45 255t-48 259t-134 223q-191 213 -453 213q-139 0 -258 -59q-236 -121 -332 -385q-46 -127 -46 -256zM109 728q0 142 54 278q109 275 357 399q124 59 270 59t271 -63
q250 -126 352 -406q49 -131 49 -275q0 -283 -194 -507q-206 -223 -488 -223q-148 0 -272 64q-252 132 -350 401q-49 131 -49 273zM848 1731l-33 -25l-168 174h68z" />
    <glyph glyph-name="Oacute" unicode="&#xd3;" horiz-adv-x="1570" 
d="M150 723q0 -129 47 -255t133 -224q80 -96 198 -154t257 -59q139 0 259 60q237 119 332 382q45 123 45 255t-48 259t-134 223q-191 213 -453 213q-139 0 -258 -59q-236 -121 -332 -385q-46 -127 -46 -256zM109 728q0 142 54 278q109 275 357 399q124 59 270 59t271 -63
q250 -126 352 -406q49 -131 49 -275q0 -283 -194 -507q-206 -223 -488 -223q-148 0 -272 64q-252 132 -350 401q-49 131 -49 273zM856 1880h70l-168 -174l-33 25z" />
    <glyph glyph-name="Ocircumflex" unicode="&#xd4;" horiz-adv-x="1570" 
d="M150 723q0 -129 47 -255t133 -224q80 -96 198 -154t257 -59q139 0 259 60q237 119 332 382q45 123 45 255t-48 259t-134 223q-191 213 -453 213q-139 0 -258 -59q-236 -121 -332 -385q-46 -127 -46 -256zM109 728q0 142 54 278q109 275 357 399q124 59 270 59t271 -63
q250 -126 352 -406q49 -131 49 -275q0 -283 -194 -507q-206 -223 -488 -223q-148 0 -272 64q-252 132 -350 401q-49 131 -49 273zM803 1880l190 -151l-32 -25l-175 129l-174 -129l-32 25l190 151h33z" />
    <glyph glyph-name="Odieresis" unicode="&#xd6;" horiz-adv-x="1570" 
d="M150 723q0 -129 47 -255t133 -224q80 -96 198 -154t257 -59q139 0 259 60q237 119 332 382q45 123 45 255t-48 259t-134 223q-191 213 -453 213q-139 0 -258 -59q-236 -121 -332 -385q-46 -127 -46 -256zM109 728q0 142 54 278q109 275 357 399q124 59 270 59t271 -63
q250 -126 352 -406q49 -131 49 -275q0 -283 -194 -507q-206 -223 -488 -223q-148 0 -272 64q-252 132 -350 401q-49 131 -49 273zM926 1880v-158h-41v158h41zM688 1880v-158h-41v158h41z" />
    <glyph glyph-name="multiply" unicode="&#xd7;" horiz-adv-x="923" 
d="M461 524l-277 -276l-28 31l274 274l-276 278l30 29l277 -276l278 278l29 -31l-279 -278l279 -277l-31 -28z" />
    <glyph glyph-name="Oslash" unicode="&#xd8;" horiz-adv-x="1570" 
d="M1421 742q0 146 -67 294q-72 147 -187 244l-731 -1135q164 -116 350 -114q138 0 258 60q237 119 332 382q45 123 45 269zM150 706q0 -146 68 -290q68 -145 183 -244l729 1137q-160 116 -344 114q-139 0 -258 -60q-236 -119 -331 -382q-47 -129 -47 -275zM786 1464
q210 0 367 -121l72 111h53l-88 -139q126 -104 199 -263t73 -318q0 -297 -194 -521q-206 -223 -482 -223q-203 0 -370 121l-72 -99h-51l88 125q-129 104 -201 263q-137 302 -18 606q111 276 358 399q125 59 266 59z" />
    <glyph glyph-name="Ugrave" unicode="&#xd9;" horiz-adv-x="1558" 
d="M1333 1454h41v-727q0 -503 -311 -676q-113 -61 -285 -61q-316 0 -469 232q-125 189 -125 505v727h41v-727q0 -304 115 -479q145 -217 441 -217t440 221q59 96 88 223q25 127 24 252v727zM842 1731l-33 -25l-168 174h68z" />
    <glyph glyph-name="Uacute" unicode="&#xda;" horiz-adv-x="1558" 
d="M1333 1454h41v-727q0 -503 -311 -676q-113 -61 -285 -61q-316 0 -469 232q-125 189 -125 505v727h41v-727q0 -304 115 -479q145 -217 441 -217t440 221q59 96 88 223q25 127 24 252v727zM850 1880h70l-168 -174l-33 25z" />
    <glyph glyph-name="Ucircumflex" unicode="&#xdb;" horiz-adv-x="1558" 
d="M1333 1454h41v-727q0 -503 -311 -676q-113 -61 -285 -61q-316 0 -469 232q-125 189 -125 505v727h41v-727q0 -304 115 -479q145 -217 441 -217t440 221q59 96 88 223q25 127 24 252v727zM797 1880l190 -151l-33 -25l-174 129l-174 -129l-33 25l191 151h33z" />
    <glyph glyph-name="Udieresis" unicode="&#xdc;" horiz-adv-x="1558" 
d="M1333 1454h41v-727q0 -503 -311 -676q-113 -61 -285 -61q-316 0 -469 232q-125 189 -125 505v727h41v-727q0 -304 115 -479q145 -217 441 -217t440 221q59 96 88 223q25 127 24 252v727zM920 1880v-158h-41v158h41zM682 1880v-158h-41v158h41z" />
    <glyph glyph-name="germandbls" unicode="&#xdf;" horiz-adv-x="1118" 
d="M561 805h-35v41h33q134 0 225 82q45 41 68 93q49 110 -2 224q-29 53 -70 92q-104 86 -246 85q-143 -1 -233 -103t-90 -277v-1042h-41v1042q0 184 104 306q49 55 121 85q144 60 288 7q145 -52 201 -167t13 -239q-76 -180 -227 -207q170 -35 262 -141q90 -109 90 -270
q0 -200 -142 -310t-411 -118v39q248 2 380 103t132 277t-115 287t-305 111z" />
    <glyph glyph-name="agrave" unicode="&#xe0;" horiz-adv-x="1075" 
d="M422 20q141 0 253 52t167 137q31 43 30 84v211q-160 63 -349 63t-297 -72q-109 -72 -107 -190q0 -59 22 -109q49 -111 162 -153q58 -23 119 -23zM156 940q207 139 375 139t278 -110q106 -110 104 -299v-588q0 -41 33 -41v-41q-41 0 -57 29t-17 53v98q-74 -96 -190 -148
t-260 -52q-74 0 -136 26q-122 50 -182 172q-26 55 -26 126t32 125q68 114 230 157q84 23 176 22q199 0 356 -59v121q0 170 -94 268q-102 102 -258 101t-340 -132zM586 1346l-33 -25l-168 174h68z" />
    <glyph glyph-name="aacute" unicode="&#xe1;" horiz-adv-x="1075" 
d="M422 20q141 0 253 52t167 137q31 43 30 84v211q-160 63 -349 63t-297 -72q-109 -72 -107 -190q0 -59 22 -109q49 -111 162 -153q58 -23 119 -23zM156 940q207 139 375 139t278 -110q106 -110 104 -299v-588q0 -41 33 -41v-41q-41 0 -57 29t-17 53v98q-74 -96 -190 -148
t-260 -52q-74 0 -136 26q-122 50 -182 172q-26 55 -26 126t32 125q68 114 230 157q84 23 176 22q199 0 356 -59v121q0 170 -94 268q-102 102 -258 101t-340 -132zM594 1495h70l-168 -174l-33 25z" />
    <glyph glyph-name="acircumflex" unicode="&#xe2;" horiz-adv-x="1075" 
d="M422 20q141 0 253 52t167 137q31 43 30 84v211q-160 63 -349 63t-297 -72q-109 -72 -107 -190q0 -59 22 -109q49 -111 162 -153q58 -23 119 -23zM156 940q207 139 375 139t278 -110q106 -110 104 -299v-588q0 -41 33 -41v-41q-41 0 -57 29t-17 53v98q-74 -96 -190 -148
t-260 -52q-74 0 -136 26q-122 50 -182 172q-26 55 -26 126t32 125q68 114 230 157q84 23 176 22q199 0 356 -59v121q0 170 -94 268q-102 102 -258 101t-340 -132zM541 1495l190 -152l-33 -24l-174 129l-174 -129l-33 24l191 152h33z" />
    <glyph glyph-name="adieresis" unicode="&#xe4;" horiz-adv-x="1075" 
d="M422 20q141 0 253 52t167 137q31 43 30 84v211q-160 63 -349 63t-297 -72q-109 -72 -107 -190q0 -59 22 -109q49 -111 162 -153q58 -23 119 -23zM156 940q207 139 375 139t278 -110q106 -110 104 -299v-588q0 -41 33 -41v-41q-41 0 -57 29t-17 53v98q-74 -96 -190 -148
t-260 -52q-74 0 -136 26q-122 50 -182 172q-26 55 -26 126t32 125q68 114 230 157q84 23 176 22q199 0 356 -59v121q0 170 -94 268q-102 102 -258 101t-340 -132zM664 1495v-158h-41v158h41zM426 1495v-158h-41v158h41z" />
    <glyph glyph-name="aring" unicode="&#xe5;" horiz-adv-x="1075" 
d="M422 20q141 0 253 52t167 137q31 43 30 84v211q-160 63 -349 63t-297 -72q-109 -72 -107 -190q0 -59 22 -109q49 -111 162 -153q58 -23 119 -23zM156 940q207 139 375 139t278 -110q106 -110 104 -299v-588q0 -41 33 -41v-41q-41 0 -57 29t-17 53v98q-74 -96 -190 -148
t-260 -52q-74 0 -136 26q-122 50 -182 172q-26 55 -26 126t32 125q68 114 230 157q84 23 176 22q199 0 356 -59v121q0 170 -94 268q-102 102 -258 101t-340 -132zM524 1462q-33 0 -59 -22q-25 -23 -25 -60q0 -38 25 -62t57 -24t59 22q28 22 27 62q0 39 -24 62q-27 22 -60 22
zM408 1379q0 48 34 82t83 34q50 0 83 -33t33 -83t-34 -84q-34 -33 -82 -33t-83 34q-34 35 -34 83z" />
    <glyph glyph-name="ae" unicode="&#xe6;" horiz-adv-x="1900" 
d="M422 20q141 0 253 52t167 137q25 37 30 72q-55 111 -59 243q-141 43 -264 43t-194 -17q-146 -35 -208 -136q-59 -103 -4 -219q44 -109 160 -152q58 -23 119 -23zM1315 1038q-186 0 -318 -139q-131 -131 -143 -350h930q-11 208 -146 352q-137 137 -323 137zM524 1079
q280 0 365 -254q66 113 178 185q113 70 233 70q222 -1 377 -160q150 -163 150 -390v-22h-973q10 -102 51 -194q78 -177 248 -255q81 -39 157 -39q136 0 246 64q42 23 86 66t66 94l39 -11q-19 -49 -63 -98q-82 -90 -222 -137q-68 -18 -137 -18q-133 0 -244 68t-180 179
q-35 -69 -90 -115q-157 -133 -389 -132q-74 0 -136 26q-122 50 -182 172q-26 55 -26 126t32 125q107 181 438 179q124 0 265 -41q6 102 47 203q-29 125 -115 197q-90 71 -235 71t-330 -131l-24 33q207 139 368 139z" />
    <glyph glyph-name="ccedilla" unicode="&#xe7;" horiz-adv-x="1107" 
d="M644 -293q110 0 110 78q0 45 -27 61q-58 34 -162 4q-35 -6 -76 -20l86 152q-199 12 -335 176q-142 164 -142 380q0 116 40 216q79 198 272 284q94 41 214 41t228 -61q106 -66 158 -176l-41 -15q-51 94 -150 156q-97 55 -207 55q-195 0 -338 -145q-66 -68 -98 -160
q-37 -92 -37 -195q0 -212 141 -365t331 -153t323 140q37 39 49 84l41 -13q-34 -99 -145 -171t-254 -80l-56 -97q30 13 86 13q139 0 140 -111q0 -117 -166 -117q-47 0 -103 10q-41 11 -90 29l21 37q77 -37 187 -37z" />
    <glyph glyph-name="egrave" unicode="&#xe8;" horiz-adv-x="1183" 
d="M922 901q-137 137 -324 137t-317 -139q-132 -132 -144 -350h930q-11 206 -145 352zM590 -20q-88 0 -178 43t-163 121t-113 180q-40 104 -40 217q0 226 147 382t354 156t364 -159q149 -162 149 -390v-22h-973q10 -102 51 -194q78 -177 248 -255q80 -39 156 -39
q135 0 248 64q43 23 86 66t65 94l39 -11q-18 -49 -62 -98q-80 -89 -223 -137q-67 -18 -155 -18zM662 1346l-33 -25l-168 174h67z" />
    <glyph glyph-name="eacute" unicode="&#xe9;" horiz-adv-x="1183" 
d="M922 901q-137 137 -324 137t-317 -139q-132 -132 -144 -350h930q-11 206 -145 352zM590 -20q-88 0 -178 43t-163 121t-113 180q-40 104 -40 217q0 226 147 382t354 156t364 -159q149 -162 149 -390v-22h-973q10 -102 51 -194q78 -177 248 -255q80 -39 156 -39
q135 0 248 64q43 23 86 66t65 94l39 -11q-18 -49 -62 -98q-80 -89 -223 -137q-67 -18 -155 -18zM670 1495h69l-168 -174l-32 25z" />
    <glyph glyph-name="ecircumflex" unicode="&#xea;" horiz-adv-x="1183" 
d="M922 901q-137 137 -324 137t-317 -139q-132 -132 -144 -350h930q-11 206 -145 352zM590 -20q-88 0 -178 43t-163 121t-113 180q-40 104 -40 217q0 226 147 382t354 156t364 -159q149 -162 149 -390v-22h-973q10 -102 51 -194q78 -177 248 -255q80 -39 156 -39
q135 0 248 64q43 23 86 66t65 94l39 -11q-18 -49 -62 -98q-80 -89 -223 -137q-67 -18 -155 -18zM616 1495l191 -152l-33 -24l-174 129l-174 -129l-33 24l191 152h32z" />
    <glyph glyph-name="edieresis" unicode="&#xeb;" horiz-adv-x="1183" 
d="M922 901q-137 137 -324 137t-317 -139q-132 -132 -144 -350h930q-11 206 -145 352zM590 -20q-88 0 -178 43t-163 121t-113 180q-40 104 -40 217q0 226 147 382t354 156t364 -159q149 -162 149 -390v-22h-973q10 -102 51 -194q78 -177 248 -255q80 -39 156 -39
q135 0 248 64q43 23 86 66t65 94l39 -11q-18 -49 -62 -98q-80 -89 -223 -137q-67 -18 -155 -18zM739 1495v-158h-41v158h41zM502 1495v-158h-41v158h41z" />
    <glyph glyph-name="eth" unicode="&#xf0;" horiz-adv-x="1218" 
d="M141 473q0 -187 138 -319q134 -134 325 -134q96 0 182 41t148 105t100 153q37 91 37 183t-38 171q-73 152 -247 226q-84 33 -179 33t-179 -37q-172 -75 -250 -247q-38 -84 -37 -175zM1112 498q0 -205 -147 -363q-76 -76 -162 -112q-91 -43 -195 -43t-198 40
q-185 80 -269 265q-41 92 -41 190q0 99 42 193q81 183 270 266q90 39 184 39q165 0 297 -82q122 -85 178 -215q-8 72 -25 148q-55 247 -298 462l-254 -166l-21 29l246 162q-113 96 -266 184h59q131 -78 236 -166l198 131l21 -28l-191 -125q287 -243 325 -603
q11 -104 11 -206z" />
    <glyph glyph-name="ograve" unicode="&#xf2;" horiz-adv-x="1204" 
d="M137 525q0 -103 37 -196t100 -159q56 -66 144 -108t181 -42t180 41q174 82 251 273q37 92 37 195q0 206 -137 358q-138 151 -328 151q-92 0 -178 -41q-172 -79 -249 -273q-38 -96 -38 -199zM602 -20q-106 0 -198 44t-158 119q-68 72 -109 175t-41 211t41 210
q81 202 271 297q92 43 194 43t196 -45t162 -122q148 -167 148 -387t-147 -382q-150 -163 -359 -163zM664 1346l-33 -25l-168 174h67z" />
    <glyph glyph-name="oacute" unicode="&#xf3;" horiz-adv-x="1204" 
d="M137 525q0 -103 37 -196t100 -159q56 -66 144 -108t181 -42t180 41q174 82 251 273q37 92 37 195q0 206 -137 358q-138 151 -328 151q-92 0 -178 -41q-172 -79 -249 -273q-38 -96 -38 -199zM602 -20q-106 0 -198 44t-158 119q-68 72 -109 175t-41 211t41 210
q81 202 271 297q92 43 194 43t196 -45t162 -122q148 -167 148 -387t-147 -382q-150 -163 -359 -163zM672 1495h69l-168 -174l-32 25z" />
    <glyph glyph-name="ocircumflex" unicode="&#xf4;" horiz-adv-x="1204" 
d="M137 525q0 -103 37 -196t100 -159q56 -66 144 -108t181 -42t180 41q174 82 251 273q37 92 37 195q0 206 -137 358q-138 151 -328 151q-92 0 -178 -41q-172 -79 -249 -273q-38 -96 -38 -199zM602 -20q-106 0 -198 44t-158 119q-68 72 -109 175t-41 211t41 210
q81 202 271 297q92 43 194 43t196 -45t162 -122q148 -167 148 -387t-147 -382q-150 -163 -359 -163zM618 1495l191 -152l-33 -24l-174 129l-174 -129l-33 24l191 152h32z" />
    <glyph glyph-name="otilde" unicode="&#xf5;" horiz-adv-x="1204" 
d="M137 525q0 -103 37 -196t100 -159q56 -66 144 -108t181 -42t180 41q174 82 251 273q37 92 37 195q0 206 -137 358q-138 151 -328 151q-92 0 -178 -41q-172 -79 -249 -273q-38 -96 -38 -199zM602 -20q-106 0 -198 44t-158 119q-68 72 -109 175t-41 211t41 210
q81 202 271 297q92 43 194 43t196 -45t162 -122q148 -167 148 -387t-147 -382q-150 -163 -359 -163zM604 1436q70 -39 134 -39t96 47q18 24 18 51h41l-4 -29q-32 -108 -156 -108q-83 0 -149 38q-139 81 -197 -3q-14 -20 -16 -35l-4 -21h-41l4 27q2 18 18 45q38 64 112 65
t144 -38z" />
    <glyph glyph-name="odieresis" unicode="&#xf6;" horiz-adv-x="1204" 
d="M137 525q0 -103 37 -196t100 -159q56 -66 144 -108t181 -42t180 41q174 82 251 273q37 92 37 195q0 206 -137 358q-138 151 -328 151q-92 0 -178 -41q-172 -79 -249 -273q-38 -96 -38 -199zM602 -20q-106 0 -198 44t-158 119q-68 72 -109 175t-41 211t41 210
q81 202 271 297q92 43 194 43t196 -45t162 -122q148 -167 148 -387t-147 -382q-150 -163 -359 -163zM741 1495v-158h-41v158h41zM504 1495v-158h-41v158h41z" />
    <glyph glyph-name="divide" unicode="&#xf7;" horiz-adv-x="1136" 
d="M588 319v-131h-41v131h41zM981 575v-40h-825v40h825zM588 920v-132h-41v132h41z" />
    <glyph glyph-name="oslash" unicode="&#xf8;" horiz-adv-x="1204" 
d="M582 20q210 0 348 152q137 152 137 358q0 125 -52 231t-136 173l-517 -840q110 -74 220 -74zM620 1038q-206 0 -346 -151q-137 -153 -137 -373q0 -114 51 -220q51 -105 138 -175l516 844q-112 75 -222 75zM1108 528q0 -224 -148 -385q-149 -163 -377 -163q-126 0 -243 79
l-35 -59h-51l51 84q-96 78 -152 193q-57 115 -57 237t41 225q81 202 271 297q92 43 181 43q89 1 151 -21t122 -61l41 66h53l-57 -92q89 -72 149 -189t60 -254z" />
    <glyph glyph-name="ugrave" unicode="&#xf9;" horiz-adv-x="1175" 
d="M500 -20q-342 0 -342 487v596h41v-596q0 -446 301 -447q152 0 284 105q129 99 179 262v676h41v-981q0 -41 32 -41v-41q-41 0 -57 29t-16 53v188q-72 -138 -197 -214t-266 -76zM637 1346l-33 -25l-168 174h68z" />
    <glyph glyph-name="uacute" unicode="&#xfa;" horiz-adv-x="1175" 
d="M500 -20q-342 0 -342 487v596h41v-596q0 -446 301 -447q152 0 284 105q129 99 179 262v676h41v-981q0 -41 32 -41v-41q-41 0 -57 29t-16 53v188q-72 -138 -197 -214t-266 -76zM645 1495h70l-168 -174l-33 25z" />
    <glyph glyph-name="ucircumflex" unicode="&#xfb;" horiz-adv-x="1175" 
d="M500 -20q-342 0 -342 487v596h41v-596q0 -446 301 -447q152 0 284 105q129 99 179 262v676h41v-981q0 -41 32 -41v-41q-41 0 -57 29t-16 53v188q-72 -138 -197 -214t-266 -76zM592 1495l190 -152l-32 -24l-175 129l-174 -129l-32 24l190 152h33z" />
    <glyph glyph-name="udieresis" unicode="&#xfc;" horiz-adv-x="1175" 
d="M500 -20q-342 0 -342 487v596h41v-596q0 -446 301 -447q152 0 284 105q129 99 179 262v676h41v-981q0 -41 32 -41v-41q-41 0 -57 29t-16 53v188q-72 -138 -197 -214t-266 -76zM715 1495v-158h-41v158h41zM477 1495v-158h-41v158h41z" />
    <glyph glyph-name="Cacute" unicode="&#x106;" horiz-adv-x="1437" 
d="M147 721q1 -131 53 -260t136 -219q84 -96 201 -154t254 -59q245 0 426 170q61 61 102 137l39 -10q-70 -155 -242 -252q-72 -41 -165 -64t-169 -22q-145 0 -270 64t-215 172t-139 241q-52 129 -52 265t48 268q99 275 348 401q124 63 306 63t316 -89t199 -228l-39 -12
q-155 288 -500 288q-147 0 -267 -59q-238 -117 -329 -381q-41 -129 -41 -260zM858 1880h70l-168 -174l-33 25z" />
    <glyph glyph-name="cacute" unicode="&#x107;" horiz-adv-x="1105" 
d="M96 540q0 114 40 214q79 198 272 284q94 41 214 41t228 -61q106 -66 158 -176l-41 -15q-51 94 -150 156q-97 55 -207 55q-195 0 -338 -145q-135 -146 -135 -356t140 -363q140 -154 331 -154q190 0 324 140q37 39 49 84l41 -13q-36 -107 -154 -178q-53 -33 -120 -55
q-68 -18 -156 -18t-181 44t-163 119q-152 165 -152 397zM672 1495h69l-168 -174l-32 25z" />
    <glyph glyph-name="Ccircumflex" unicode="&#x108;" horiz-adv-x="1437" 
d="M147 721q1 -131 53 -260t136 -219q84 -96 201 -154t254 -59q245 0 426 170q61 61 102 137l39 -10q-70 -155 -242 -252q-72 -41 -165 -64t-169 -22q-145 0 -270 64t-215 172t-139 241q-52 129 -52 265t48 268q99 275 348 401q124 63 306 63t316 -89t199 -228l-39 -12
q-155 288 -500 288q-147 0 -267 -59q-238 -117 -329 -381q-41 -129 -41 -260zM805 1880l190 -151l-32 -25l-175 129l-174 -129l-32 25l190 151h33z" />
    <glyph glyph-name="ccircumflex" unicode="&#x109;" horiz-adv-x="1105" 
d="M96 540q0 114 40 214q79 198 272 284q94 41 214 41t228 -61q106 -66 158 -176l-41 -15q-51 94 -150 156q-97 55 -207 55q-195 0 -338 -145q-135 -146 -135 -356t140 -363q140 -154 331 -154q190 0 324 140q37 39 49 84l41 -13q-36 -107 -154 -178q-53 -33 -120 -55
q-68 -18 -156 -18t-181 44t-163 119q-152 165 -152 397zM618 1495l191 -152l-33 -24l-174 129l-174 -129l-33 24l191 152h32z" />
    <glyph glyph-name="dcaron" unicode="&#x10f;" horiz-adv-x="1236" 
d="M137 528q-1 -200 139 -355q66 -73 150 -113t166 -40q149 0 282 99q59 41 105 102q43 61 45 125v383q-36 115 -176 219q-132 92 -246 91t-199 -44q-172 -98 -233 -280q-33 -90 -33 -187zM1284 1495h70l-168 -174l-33 25zM584 -20q-82 0 -176 45t-164 123
q-148 166 -148 384t142 381q59 72 151 119q91 47 185 47t152 -19q116 -38 222 -142q37 -41 76 -103v680h41v-1413q0 -41 33 -41v-41q-40 0 -57 30t-17 52v139q-35 -55 -80 -96q-146 -145 -360 -145z" />
    <glyph glyph-name="gcommaaccent" unicode="&#x123;" horiz-adv-x="1234" 
d="M137 528q-1 -200 139 -355q66 -73 150 -113t171 -40q152 0 290 107q53 43 94 103t43 116v383q-50 136 -174 221q-131 88 -284 88q-87 0 -168 -45t-139 -117t-90 -164t-32 -184zM1024 -45v266q-105 -166 -295 -225q-63 -16 -145 -16t-176 45t-164 123t-109 177t-39 204
t35 203q75 210 260 302q89 45 181 45q92 1 153 -21t117 -54q96 -69 182 -189v248h41v-1108q0 -194 -134 -303t-329 -109q-194 0 -302 71t-165 183l39 13q123 -226 422 -226q86 0 165 24q162 49 230 185q33 68 33 162zM715 1495h69l-168 -174l-32 25z" />
    <glyph glyph-name="Idotaccent" unicode="&#x130;" horiz-adv-x="454" 
d="M248 1452v-1452h-41v1452h41zM248 1880v-158h-41v158h41z" />
    <glyph glyph-name="dotlessi" unicode="&#x131;" horiz-adv-x="380" 
d="M211 1063v-1063h-41v1063h41z" />
    <glyph glyph-name="IJ" unicode="&#x132;" horiz-adv-x="1437" 
d="M796 18q154 0 230 50q143 85 168 354q12 129 12 293v737h41v-737q0 -166 -14 -305q-28 -281 -186 -379q-88 -53 -250 -53t-295 90l22 32q118 -82 272 -82zM248 1452v-1452h-41v1452h41z" />
    <glyph glyph-name="ij" unicode="&#x133;" horiz-adv-x="761" 
d="M211 1063v-1063h-41v1063h41zM147 -254q56 -53 157 -53t173 67q72 63 74 166v1137h41v-1137q0 -115 -87 -194q-87 -80 -186 -80q-135 0 -204 69zM592 1495v-158h-41v158h41zM211 1495v-158h-41v158h41z" />
    <glyph glyph-name="kgreenlandic" unicode="&#x138;" horiz-adv-x="1036" 
d="M211 0h-41v1063h41v-662l725 658h55l-461 -422l471 -637h-49l-452 608l-289 -262v-346z" />
    <glyph glyph-name="Lacute" unicode="&#x139;" horiz-adv-x="1210" 
d="M248 1454v-1413h913v-41h-954v1454h41zM752 1880h69l-168 -174l-32 25z" />
    <glyph glyph-name="Lcaron" unicode="&#x13d;" horiz-adv-x="1210" 
d="M248 1454v-1413h913v-41h-954v1454h41zM831 1495h70l-168 -174l-33 25z" />
    <glyph glyph-name="lcaron" unicode="&#x13e;" horiz-adv-x="460" 
d="M455 1495h69l-168 -174l-32 25zM343 -10q-71 0 -117 46t-46 122v1337h41v-1337q0 -59 37 -95q39 -35 100 -35t111 19l14 -33q-69 -24 -140 -24z" />
    <glyph glyph-name="napostrophe" unicode="&#x149;" horiz-adv-x="1153" 
d="M954 0v592q0 234 -63 340t-214 106t-286 -104q-63 -49 -111 -119t-69 -143v-672h-41v1063h41v-275q64 125 197 211q135 80 286 80q150 1 226 -117t75 -370v-592h-41zM102 1442l7 53h110l-168 -174l-33 25z" />
    <glyph glyph-name="OE" unicode="&#x152;" horiz-adv-x="2482" 
d="M785 31q139 0 259 60q233 117 332 384q45 123 45 254t-48 258t-134 223q-191 213 -453 213q-139 0 -258 -60q-236 -119 -331 -382q-47 -129 -47 -258t47 -255t133 -224q80 -96 198 -154t257 -59zM1421 16v463q-35 -102 -99 -194q-129 -187 -321 -256q-98 -39 -230 -39
t-257 62q-252 125 -354 403q-51 129 -51 272t54 279q109 275 357 399q125 59 255 59q234 0 406 -142t240 -349v481h936v-41h-895v-649h785v-41h-785v-682h914v-25h-955z" />
    <glyph glyph-name="oe" unicode="&#x153;" horiz-adv-x="2156" 
d="M1571 1038q-186 0 -318 -139q-131 -131 -143 -350h930q-11 208 -146 352q-137 137 -323 137zM1069 527q0 203 -135 362q-140 149 -329 149t-329 -151q-61 -68 -99 -163q-38 -94 -38 -200t37 -196q33 -92 98 -160q133 -148 325 -148q97 0 184 41t149 108t100 161
q37 94 37 197zM590 -20q-94 0 -185 43q-187 88 -268 290q-39 96 -39 213q0 227 147 390t363 163q169 0 301 -108q59 -47 107 -124t69 -167q45 191 177 296t311 103q104 0 193 -38q181 -77 262 -281q41 -104 53 -230l2 -22h-973q10 -104 50 -192q83 -182 261 -257
q84 -39 163 -39q209 0 343 134q35 37 58 90l38 -11q-37 -102 -165 -182q-124 -71 -259 -71q-170 0 -315 112q-144 104 -194 287q-52 -184 -186 -292q-133 -107 -314 -107z" />
    <glyph glyph-name="Sacute" unicode="&#x15a;" horiz-adv-x="1249" 
d="M178 1080q0 -149 109 -220q55 -37 143 -61q76 -25 197 -49q279 -57 397 -127q141 -89 141 -267t-136 -272t-376 -94q-176 0 -311 53t-254 172l31 27q111 -115 239 -166t322 -51q194 1 319 81t125 240t-108 234t-377 129q-123 23 -212 47q-197 54 -257 168q-33 57 -33 150
q0 183 139 290q132 100 381 100q129 0 231 -40t189 -134l-26 -28q-85 94 -181 129t-221 35t-213 -25q-258 -71 -258 -321zM709 1925h69l-168 -174l-32 25z" />
    <glyph glyph-name="sacute" unicode="&#x15b;" horiz-adv-x="964" 
d="M481 -20q-248 0 -405 172l30 26q82 -78 170 -118t226 -40q137 0 235 68q99 68 99 181t-97 171q-61 36 -221 75q-159 38 -214 52q-182 46 -179 211q0 150 113 230q102 71 290 71q100 0 193 -45q92 -45 125 -108l-37 -17q-39 63 -126 97t-174 32q-244 -1 -316 -137
q-27 -47 -27 -107q0 -111 72 -153q52 -31 187 -64q136 -33 215 -55q153 -42 208 -123q29 -47 29 -115q0 -135 -109 -221q-107 -83 -287 -83zM561 1495h70l-168 -174l-33 25z" />
    <glyph glyph-name="Scircumflex" unicode="&#x15c;" horiz-adv-x="1249" 
d="M178 1080q0 -149 109 -220q55 -37 143 -61q76 -25 197 -49q279 -57 397 -127q141 -89 141 -267t-136 -272t-376 -94q-176 0 -311 53t-254 172l31 27q111 -115 239 -166t322 -51q194 1 319 81t125 240t-108 234t-377 129q-123 23 -212 47q-197 54 -257 168q-33 57 -33 150
q0 183 139 290q132 100 381 100q129 0 231 -40t189 -134l-26 -28q-85 94 -181 129t-221 35t-213 -25q-258 -71 -258 -321zM655 1925l191 -151l-33 -25l-174 129l-174 -129l-33 25l191 151h32z" />
    <glyph glyph-name="scircumflex" unicode="&#x15d;" horiz-adv-x="964" 
d="M481 -20q-248 0 -405 172l30 26q82 -78 170 -118t226 -40q137 0 235 68q99 68 99 181t-97 171q-61 36 -221 75q-159 38 -214 52q-182 46 -179 211q0 150 113 230q102 71 290 71q100 0 193 -45q92 -45 125 -108l-37 -17q-39 63 -126 97t-174 32q-244 -1 -316 -137
q-27 -47 -27 -107q0 -111 72 -153q52 -31 187 -64q136 -33 215 -55q153 -42 208 -123q29 -47 29 -115q0 -135 -109 -221q-107 -83 -287 -83zM508 1495l190 -152l-32 -24l-174 129l-175 -129l-32 24l190 152h33z" />
    <glyph glyph-name="uni015F" unicode="&#x15f;" horiz-adv-x="966" 
d="M513 -297q110 0 110 78q0 45 -27 61q-58 34 -162 4q-37 -6 -76 -20l88 156q-225 10 -370 170l30 26q82 -78 170 -118t226 -40q137 0 235 68q99 68 99 181t-97 171q-61 36 -221 75q-159 38 -214 52q-182 46 -179 211q0 150 113 230q102 71 290 71q100 0 193 -45
q92 -45 125 -108l-37 -17q-39 63 -126 97t-174 32q-244 -1 -316 -137q-27 -47 -27 -107q0 -111 72 -153q52 -31 187 -64q136 -33 215 -55q153 -42 208 -123q29 -47 29 -115q0 -127 -102 -212q-102 -84 -279 -92l-58 -101q28 12 86 12q139 0 140 -110q0 -117 -166 -117
q-47 0 -103 10q-41 11 -90 29l21 37q77 -37 187 -37z" />
    <glyph glyph-name="tcaron" unicode="&#x165;" horiz-adv-x="604" 
d="M410 -10q-91 0 -145 46t-54 118v868h-154v41h154v371h41v-371h256v-41h-256v-868q0 -60 45 -92t98 -31q101 0 172 51l23 -33q-89 -59 -180 -59zM545 1495h69l-168 -174l-32 25z" />
    <glyph glyph-name="florin" unicode="&#x192;" horiz-adv-x="1044" 
d="M543 1106v-168h317v-41h-317v-971q0 -115 -87 -194q-87 -80 -186 -80q-135 0 -204 69l32 25q56 -53 157 -53t173 67q72 63 74 166v971h-154v41h154v168q0 197 73 303q74 106 207 107q62 0 116 -21t79 -49l-33 -25q-54 54 -165 55q-112 0 -174 -94t-62 -276z" />
    <glyph glyph-name="dotlessj" unicode="&#x237;" horiz-adv-x="380" 
d="M-233 -254q56 -53 157 -53t172 67q74 64 74 166v1137h41v-1137q0 -115 -87 -194q-87 -80 -185 -80q-136 0 -205 69z" />
    <glyph glyph-name="uni02BC" unicode="&#x2bc;" horiz-adv-x="737" 
d="M393 1442l6 53h111l-168 -174l-33 25z" />
    <glyph glyph-name="circumflex" unicode="&#x2c6;" horiz-adv-x="618" 
d="M326 1495l190 -152l-33 -24l-174 129l-174 -129l-33 24l191 152h33z" />
    <glyph glyph-name="caron" unicode="&#x2c7;" horiz-adv-x="618" 
d="M483 1495l33 -25l-190 -151h-33l-191 151l33 25l174 -129z" />
    <glyph glyph-name="dotaccent" unicode="&#x2d9;" horiz-adv-x="245" 
d="M143 1495v-158h-41v158h41z" />
    <glyph glyph-name="ring" unicode="&#x2da;" horiz-adv-x="487" 
d="M244 1462q-33 0 -60 -22q-24 -23 -24 -60q0 -38 24 -62t58 -24q33 0 59 25q27 20 27 59t-25 62q-26 22 -59 22zM127 1379q0 48 34 82t84 34t83 -33q32 -33 32 -83t-34 -84q-34 -33 -81 -33q-48 0 -83 34t-35 83z" />
    <glyph glyph-name="ogonek" unicode="&#x2db;" horiz-adv-x="415" 
d="M98 -197q0 94 183 226l24 -29q-94 -66 -130 -106t-36 -89q0 -78 90 -96l-24 -35q-51 12 -79 46t-28 83z" />
    <glyph glyph-name="tilde" unicode="&#x2dc;" horiz-adv-x="784" 
d="M387 1436q70 -39 136 -39q65 0 93 47q19 25 19 51h41l-4 -29q-32 -108 -156 -108q-83 0 -149 38q-139 81 -197 -3q-14 -20 -16 -35l-4 -21h-41l4 27q2 18 18 45q38 64 112 65t144 -38z" />
    <glyph glyph-name="hungarumlaut" unicode="&#x2dd;" horiz-adv-x="610" 
d="M438 1495h70l-168 -174l-33 25zM233 1495h70l-168 -174l-33 25z" />
    <glyph glyph-name="uni03BC" unicode="&#x3bc;" horiz-adv-x="1187" 
d="M211 1063v-596q0 -446 301 -447q153 0 285 105q127 98 178 262v676h41v-981q0 -41 33 -41v-41q-42 0 -58 29t-16 53v188q-72 -139 -197 -215t-266 -75q-223 0 -301 213v-627h-41v1497h41z" />
    <glyph glyph-name="endash" unicode="&#x2013;" horiz-adv-x="1120" 
d="M973 575v-40h-826v40h826z" />
    <glyph glyph-name="emdash" unicode="&#x2014;" horiz-adv-x="1808" 
d="M1661 575v-40h-1514v40h1514z" />
    <glyph glyph-name="quoteleft" unicode="&#x2018;" horiz-adv-x="339" 
d="M203 1235v-41q-68 0 -68 72v229h41v-233q0 -27 27 -27z" />
    <glyph glyph-name="quoteright" unicode="&#x2019;" horiz-adv-x="335" 
d="M121 1454v41q68 0 67 -72v-229h-41v233q1 27 -26 27z" />
    <glyph glyph-name="quotesinglbase" unicode="&#x201a;" horiz-adv-x="372" 
d="M145 -68v41q27 0 27 27v131h41v-127q0 -72 -68 -72z" />
    <glyph glyph-name="quotedblleft" unicode="&#x201c;" horiz-adv-x="503" 
d="M367 1235v-41q-68 0 -68 72v229h41v-233q0 -27 27 -27zM203 1235v-41q-68 0 -68 72v229h41v-233q0 -27 27 -27z" />
    <glyph glyph-name="quotedblright" unicode="&#x201d;" horiz-adv-x="499" 
d="M285 1454v41q68 0 67 -72v-229h-41v233q1 27 -26 27zM121 1454v41q68 0 67 -72v-229h-41v233q1 27 -26 27z" />
    <glyph glyph-name="quotedblbase" unicode="&#x201e;" horiz-adv-x="516" 
d="M289 -68v41q27 0 26 27v131h41v-127q1 -72 -67 -72zM145 -68v41q27 0 27 27v131h41v-127q0 -72 -68 -72z" />
    <glyph glyph-name="bullet" unicode="&#x2022;" horiz-adv-x="714" 
d="M358 862q68 0 114 -46t46 -115t-46 -115t-113 -45q-67 0 -115 47t-47 98q0 51 13 79q25 53 87 85q27 12 61 12z" />
    <glyph glyph-name="ellipsis" unicode="&#x2026;" horiz-adv-x="724" 
d="M578 131v-131h-41v131h41zM383 131v-131h-41v131h41zM188 131v-131h-41v131h41z" />
    <glyph glyph-name="perthousand" unicode="&#x2030;" horiz-adv-x="2039" 
d="M1687 20q50 0 95 21q90 42 127 129q18 43 18 92t-18 94q-44 85 -131 129q-97 39 -187 0q-93 -45 -129 -131q-18 -47 -18 -96q0 -98 71 -168t172 -70zM1008 20q49 0 96 19q91 47 127 131q18 43 18 92t-18 94q-44 86 -131 129q-99 38 -187 0q-45 -23 -77 -53
q-70 -70 -70 -171t71 -171t171 -70zM1487 61q-86 86 -85 203t84 199q82 82 198 82t202 -82q84 -88 83 -202t-83 -198q-82 -83 -203 -83q-123 0 -196 81zM725 262q0 117 83 200q82 83 198 83t202 -82q84 -88 83 -202t-83 -198q-82 -83 -203 -83q-122 0 -196 81
q-84 84 -84 201zM397 950q98 0 168 71t72 171q0 49 -19 96q-47 91 -138 129q-91 37 -180 -2t-128 -131q-18 -47 -18 -96t20 -90q36 -92 128 -130q44 -18 95 -18zM1288 1432l-1143 -1434l-32 25l1142 1433zM197 993q-86 78 -85 198t84 202q82 82 198 82t202 -82
q82 -86 82 -202t-83 -199t-203 -83q-119 0 -195 84z" />
    <glyph glyph-name="guilsinglleft" unicode="&#x2039;" horiz-adv-x="729" 
d="M588 850l-447 -320l447 -321v-45l-486 348v37l486 346v-45z" />
    <glyph glyph-name="guilsinglright" unicode="&#x203a;" horiz-adv-x="729" 
d="M141 209l447 321l-447 320v45l486 -346v-37l-486 -348v45z" />
    <glyph glyph-name="fraction" unicode="&#x2044;" horiz-adv-x="245" 
d="M711 1432l-1143 -1434l-33 25l1143 1433z" />
    <glyph glyph-name="zerosuperior" unicode="&#x2070;" horiz-adv-x="894" 
d="M127 1098q0 -131 84 -242q35 -47 96 -82t141 -35q144 0 240 123q80 102 80 235q0 134 -84 242q-97 117 -235 117q-81 0 -139 -33q-112 -63 -163 -204q-20 -62 -20 -121zM86 1095q0 143 98 273q108 127 267 127q85 0 155 -40q139 -80 180 -222q23 -73 23 -141
q0 -146 -98 -269t-267 -123q-162 0 -260 126t-98 269z" />
    <glyph glyph-name="foursuperior" unicode="&#x2074;" horiz-adv-x="749" 
d="M530 975v448l-419 -448h419zM53 936v35l490 524h28v-520h113v-39h-113v-225h-41v225h-477z" />
    <glyph glyph-name="fivesuperior" unicode="&#x2075;" horiz-adv-x="743" 
d="M150 1124q84 80 211 80t219 -67q86 -73 86 -183q0 -104 -86 -178t-200 -75q-220 -2 -302 157l35 12q35 -59 100 -96t135 -37q121 0 203 62q33 27 53 69q45 93 -2 176q-38 73 -141 107q-43 14 -96 14q-144 0 -228 -100h-43l101 430h430v-39h-398z" />
    <glyph glyph-name="sixsuperior" unicode="&#x2076;" horiz-adv-x="798" 
d="M221 801q74 -70 189 -70t195 68q81 68 81 161q0 94 -80 166q-90 68 -199 68t-188 -68q-80 -75 -80 -163q0 -47 23 -91t59 -71zM725 963q0 -103 -90 -191q-89 -76 -221 -77t-230 83q-92 88 -92 230q0 248 89 368t235 119q92 0 164 -41q70 -43 98 -115l-31 -20
q-25 61 -88 100t-143 39q-125 0 -203 -103t-80 -296q29 78 107 124t161 46q216 0 299 -162q25 -49 25 -104z" />
    <glyph glyph-name="sevensuperior" unicode="&#x2077;" horiz-adv-x="671" 
d="M57 1495h594l-461 -784h-47l443 745h-529v39z" />
    <glyph glyph-name="eightsuperior" unicode="&#x2078;" horiz-adv-x="782" 
d="M653 927q0 79 -81 133t-185 54q-103 0 -159 -40t-76 -73q-25 -35 -25 -77t27 -80q27 -37 61 -56q69 -47 148 -48t122 14q97 25 143 93q24 36 25 80zM160 1304q0 -38 24 -68q68 -87 205 -87q97 0 143 32t68 58q20 27 21 66q0 68 -70 111q-70 42 -162 42q-41 0 -85 -11
q-89 -22 -124 -79q-20 -26 -20 -64zM694 936q0 -116 -92 -174q-86 -58 -218 -59t-216 67q-34 27 -58 70t-24 85q0 114 129 179q37 20 72 29q-66 20 -117 64q-51 45 -51 99q0 95 83 147t189 52q105 0 187 -49q35 -25 61 -60q23 -40 23 -92t-50 -96t-120 -65q86 -21 144 -77
t58 -120z" />
    <glyph glyph-name="ninesuperior" unicode="&#x2079;" horiz-adv-x="800" 
d="M582 1391q-89 67 -197 67t-188 -67q-35 -29 -58 -73q-45 -87 0 -179q23 -45 60 -74q72 -68 190 -69t193 69q78 66 79 160t-79 166zM709 1193q0 -257 -91 -380q-84 -119 -233 -119q-90 0 -162 42t-100 114l31 20q25 -63 88 -101t143 -38q127 -1 205 103t78 294
q-27 -76 -109 -122q-81 -46 -159 -48q-141 -1 -233 78q-91 79 -91 190q0 112 89 190q89 79 226 79q136 0 227 -84t91 -218z" />
    <glyph glyph-name="zeroinferior" unicode="&#x2080;" horiz-adv-x="894" 
d="M127 387q0 -131 84 -242q35 -47 96 -82t141 -35q146 1 240 124q80 102 80 235t-84 242q-98 118 -235 116q-81 -1 -139 -33q-112 -62 -163 -204q-20 -62 -20 -121zM176 126q-90 115 -90 258t98 273q105 127 267 127q86 0 153 -36q143 -85 182 -226q23 -74 23 -140
q0 -146 -98 -269t-267 -123q-161 0 -268 136z" />
    <glyph glyph-name="oneinferior" unicode="&#x2081;" horiz-adv-x="516" 
d="M100 0v39h170v704q-13 -19 -80 -58q-68 -38 -118 -38v39q61 0 115 41q53 41 63 51l20 19h41v-758h160v-39h-371z" />
    <glyph glyph-name="twoinferior" unicode="&#x2082;" horiz-adv-x="755" 
d="M133 39h533v-39h-584v4q0 147 68 227t184 123q6 2 41 14t69 23q94 28 150 94q27 33 27 79q0 80 -58 136q-58 54 -174 56q-166 0 -266 -123l-31 24l2 5q4 4 17 20t53 43q102 69 232 69q130 1 198 -63t69 -141q1 -78 -30 -119q-60 -79 -172 -111l-96 -32q-80 -27 -129 -67
q-82 -67 -97 -152q-6 -41 -6 -70z" />
    <glyph glyph-name="threeinferior" unicode="&#x2083;" horiz-adv-x="778" 
d="M649 203q0 82 -84 130t-221 48h-45v37h45q135 0 207 41t72 119t-70 128q-70 52 -168 52q-99 0 -163 -34t-93 -89l-31 24q31 61 106 99q74 38 152 37q134 0 226 -62q84 -64 84 -155q0 -137 -183 -179q90 -14 152 -69q55 -55 55 -131q0 -43 -22 -84q-23 -35 -66 -66
q-85 -59 -212 -59q-200 0 -279 119q-23 33 -27 77l33 15q9 -77 82 -119q81 -53 190 -53q59 0 103 13q102 30 139 91q18 33 18 70z" />
    <glyph glyph-name="fourinferior" unicode="&#x2084;" horiz-adv-x="749" 
d="M530 264v449l-419 -449h419zM53 225v35l490 524h28v-520h113v-39h-113v-225h-41v225h-477z" />
    <glyph glyph-name="fiveinferior" unicode="&#x2085;" horiz-adv-x="741" 
d="M577 64q-87 -74 -199 -74q-220 0 -302 157l35 13q35 -58 101 -96q115 -65 253 -21q96 31 139 115q43 93 -4 176q-37 72 -141 106q-43 14 -107 14t-122 -26q-58 -27 -95 -74h-43q44 173 58 242q13 70 28 125q14 55 15 63h430v-39h-398l-78 -331q84 80 211 80t220 -68
q86 -73 86 -180q0 -108 -87 -182z" />
    <glyph glyph-name="sixinferior" unicode="&#x2086;" horiz-adv-x="798" 
d="M221 96q73 -69 189 -69t196 67t80 161q0 93 -80 167q-89 67 -198 67t-189 -67q-80 -75 -80 -168q0 -92 82 -158zM92 303q0 248 89 368t235 120q92 0 164 -41q70 -43 98 -115l-31 -21q-25 60 -88 100t-143 40q-125 0 -203 -104t-80 -296q29 78 107 124t161 46
q152 0 238 -80t86 -184q0 -105 -90 -192q-91 -78 -223 -78q-70 0 -125 20q-195 86 -195 293z" />
    <glyph glyph-name="seveninferior" unicode="&#x2087;" horiz-adv-x="669" 
d="M57 784h594l-461 -784h-47l443 745h-529v39z" />
    <glyph glyph-name="eightinferior" unicode="&#x2088;" horiz-adv-x="782" 
d="M572 349q-81 54 -185 54q-103 0 -159 -40t-76 -72q-25 -33 -25 -78t27 -81t61 -54q73 -49 178 -49q97 1 175 49q85 53 85 135t-81 136zM160 593q0 -38 33 -80t97 -58q64 -17 99 -17t79 10q88 21 132 80q20 27 20 65t-18 66q-48 64 -133 81q-86 17 -147 1
q-108 -28 -142 -84q-20 -26 -20 -64zM694 224q0 -113 -92 -173q-93 -59 -215 -59q-204 0 -278 139q-23 41 -23 82q0 75 58 131t143 78q-66 20 -117 64t-51 98q0 98 83 149t189 51q105 0 187 -49q35 -25 61 -59q23 -39 23 -92q0 -52 -50 -96t-120 -66q86 -20 144 -76
q58 -58 58 -122z" />
    <glyph glyph-name="nineinferior" unicode="&#x2089;" horiz-adv-x="800" 
d="M385 754q-107 0 -188 -68q-35 -29 -58 -73q-45 -87 0 -179q23 -45 60 -74q73 -69 191 -69t192 69q78 66 79 160t-79 166q-90 68 -197 68zM709 488q0 -259 -91 -379q-85 -121 -233 -119q-90 0 -162 42t-100 113l31 21q25 -63 88 -101t143 -38q127 0 205 103t78 294
q-27 -76 -109 -123q-81 -47 -159 -47q-144 0 -234 78t-90 190t88 189q88 78 224 79t229 -83q92 -85 92 -219z" />
    <glyph glyph-name="Euro" unicode="&#x20ac;" horiz-adv-x="1677" 
d="M313 637q-6 50 -6 143h-155l20 41h139q33 269 205 441q191 200 501 200q173 0 307 -89t200 -228l-39 -12q-43 80 -101 136q-159 152 -412 152q-252 0 -427 -186q-154 -158 -191 -414h807l-20 -41h-791q-2 -8 -2 -24v-25q0 -47 6 -94h725l-20 -41h-699q46 -237 224 -402
q179 -165 417 -165t416 170q61 61 103 137l39 -10q-70 -155 -242 -252q-72 -41 -159 -64q-226 -60 -415 29q-214 91 -342 328q-57 106 -79 229h-252l20 41h223z" />
    <glyph glyph-name="trademark" unicode="&#x2122;" horiz-adv-x="1335" 
d="M1163 887h-41v489l-200 -403h-35l-201 403v-489h-41v567h43l215 -428l215 428h45v-567zM356 887h-41v530h-194v41h430v-41h-195v-530z" />
    <glyph glyph-name="uni2153" unicode="&#x2153;" horiz-adv-x="1636" 
d="M1507 203q0 82 -84 130t-221 48h-45v37h45q135 0 207 41t72 119t-70 128q-70 52 -168 52q-99 0 -163 -34t-93 -89l-31 24q31 61 106 99q74 38 152 37q136 0 226 -62q84 -64 84 -155q0 -137 -183 -179q90 -14 152 -69q55 -55 55 -131q0 -43 -22 -84q-23 -35 -66 -66
q-85 -59 -212 -59q-200 0 -279 119q-23 33 -27 77l33 15q9 -77 82 -119q81 -53 190 -53q59 0 103 13q100 29 139 91q18 35 18 70zM1341 1432l-1142 -1434l-33 25l1143 1433zM133 700v39h170v705q-12 -18 -84 -62q-66 -34 -115 -34v38q61 0 115 42t64 51l20 18h41v-758h160
v-39h-371z" />
    <glyph glyph-name="uni2154" unicode="&#x2154;" horiz-adv-x="1667" 
d="M1227 381h-45v37h45q135 0 207 41t72 119t-70 129t-168 51t-163 -34q-64 -34 -93 -89l-31 24q31 61 105 99t152 37q136 0 226 -62q86 -65 84 -155q0 -137 -182 -179q90 -14 152 -69q55 -55 55 -131q0 -85 -87 -147t-213 -62q-197 0 -280 119q-23 33 -26 77l32 15
q9 -76 82 -119q81 -53 191 -53q59 0 103 13q99 29 138 91q18 35 19 70q0 82 -84 130t-221 48zM1450 1432l-1143 -1434l-33 25l1143 1433zM190 1428q102 69 232 69t198 -64t68 -163t-106 -164q-47 -29 -97 -43l-96 -33q-80 -26 -129 -66q-81 -65 -96 -153q-6 -41 -6 -70h532
v-39h-584q0 152 68 232t184 123q6 2 41 14q35 13 69 23q99 31 150 94q27 33 27 79q0 79 -57 136q-59 55 -174 55q-167 0 -267 -123l-30 25l2 4q4 4 18 20q13 17 53 44z" />
    <glyph glyph-name="oneeighth" unicode="&#x215b;" horiz-adv-x="1636" 
d="M1428 349q-81 54 -185 54q-103 0 -159 -40t-76 -72q-25 -35 -25 -79t27 -80t61 -54q73 -49 178 -49q97 1 175 49q85 53 85 135t-81 136zM1016 593q0 -38 33 -80t97 -58q64 -17 99 -17t79 10q88 21 132 80q20 27 20 65t-18 66q-48 64 -133 81q-86 17 -147 1
q-108 -28 -142 -84q-20 -26 -20 -64zM1550 224q0 -113 -92 -173q-93 -59 -215 -59q-204 0 -278 139q-23 41 -23 82q0 73 58 130t143 79q-66 20 -117 64t-51 98q0 98 83 149q84 51 190 51t186 -49q35 -25 61 -59q23 -39 23 -92q0 -52 -50 -96t-120 -66q86 -20 144 -76
q58 -58 58 -122zM1366 1432l-1143 -1434l-33 25l1143 1433zM131 700v39h170v705q-12 -18 -84 -62q-66 -34 -115 -34v38q63 0 115 42q53 42 64 51l20 18h41v-758h160v-39h-371z" />
    <glyph glyph-name="threeeighths" unicode="&#x215c;" horiz-adv-x="1642" 
d="M1425 354q-80 49 -178 49q-47 0 -96 -14q-97 -28 -141 -98q-25 -35 -25 -79t27 -80t61 -54q73 -49 179 -49q96 1 174 49q85 53 85 135t-86 141zM1018 593q0 -38 24 -68q43 -55 106 -71q64 -16 99 -16t78 10q94 23 133 80q20 27 20 65t-18 66q-47 64 -133 81t-147 1
q-106 -27 -142 -84q-20 -26 -20 -64zM1552 224q0 -113 -92 -173q-93 -59 -215 -59q-204 0 -278 139q-23 41 -23 82q0 73 58 130t143 79q-66 20 -117 64t-51 98q0 98 83 149q84 51 190 51t186 -49q35 -25 61 -59q23 -39 23 -92q0 -52 -50 -96t-120 -66q86 -20 144 -76
q58 -58 58 -122zM1405 1432l-1143 -1434l-33 25l1143 1433zM404 692q-189 0 -275 119q-23 33 -27 78l33 14q8 -74 82 -119q81 -53 191 -53q106 0 183 49q36 23 58 56q18 33 19 69q0 82 -84 130t-222 48h-45v37h45q135 0 207 41t72 119t-70 129t-168 51q-189 0 -256 -123
l-30 25q31 61 105 98t152 37q137 0 226 -61q86 -65 84 -156q0 -137 -182 -178q90 -14 151 -70q55 -54 55 -114q1 -102 -86 -164t-218 -62z" />
    <glyph glyph-name="fiveeighths" unicode="&#x215d;" horiz-adv-x="1636" 
d="M1421 354q-80 49 -178 49q-47 0 -96 -14q-97 -28 -141 -98q-25 -35 -25 -79t27 -80t61 -54q73 -49 179 -49q96 1 174 49q85 53 85 135t-86 141zM1014 593q0 -38 24 -68q43 -55 106 -71q64 -16 99 -16t78 10q94 23 133 80q20 27 20 65t-18 66q-47 64 -133 81t-147 1
q-108 -28 -142 -84q-20 -26 -20 -64zM1548 224q0 -113 -92 -173q-93 -59 -215 -59q-204 0 -278 139q-23 41 -23 82q0 75 58 131t143 78q-66 20 -117 64t-51 98q0 98 83 149t189 51q105 0 187 -49q35 -25 61 -59q23 -39 23 -92q0 -52 -50 -96t-120 -66q86 -20 144 -76
q58 -58 58 -122zM1384 1432l-1142 -1434l-33 25l1143 1433zM162 1124q84 80 212 80t218 -67q86 -73 86 -180q0 -106 -86 -181q-86 -74 -199 -75q-219 -2 -303 157l35 12q35 -59 101 -96t136 -37q120 0 201 62q33 27 53 69q45 93 -2 176q-38 73 -141 107q-43 14 -96 14
q-145 0 -227 -100h-44q36 142 54 226q18 85 32 141t15 63h430v-39h-397z" />
    <glyph glyph-name="seveneighths" unicode="&#x215e;" horiz-adv-x="1642" 
d="M1434 354q-80 49 -179 49q-47 0 -96 -14q-97 -28 -141 -98q-25 -35 -25 -79t27 -80t61 -54q73 -49 179 -49q97 1 175 49q85 53 85 134t-86 142zM1026 593q0 -38 24 -68q66 -83 205 -87q84 0 138 30q53 30 73 59q20 28 20 66t-18 66q-47 64 -133 81t-147 1
q-107 -27 -141 -84q-21 -26 -21 -64zM1561 224q0 -112 -93 -173q-93 -59 -215 -59q-204 0 -278 139q-23 41 -23 82q0 73 58 130t143 79q-66 20 -117 64t-51 98q0 96 83 148q84 52 190 52t186 -49q35 -25 61 -59q23 -39 23 -92q0 -52 -49 -96t-121 -66q86 -20 144 -76
q58 -58 59 -122zM1286 1432l-1143 -1434l-32 25l1142 1433zM94 1495h594l-461 -784h-47l443 745h-529v39z" />
    <glyph glyph-name="minus" unicode="&#x2212;" horiz-adv-x="1136" 
d="M981 575v-40h-825v40h825z" />
    <glyph glyph-name="uni2215" unicode="&#x2215;" horiz-adv-x="1136" 
d="M1157 1432l-1143 -1434l-32 25l1142 1433z" />
    <glyph glyph-name="uni2219" unicode="&#x2219;" horiz-adv-x="335" 
d="M188 682v-170h-41v170h41z" />
    <glyph glyph-name="commaaccentcomb" unicode="&#xf6c3;" horiz-adv-x="0" 
d="M96 -301v41q27 0 27 27v131h41v-127q0 -72 -68 -72z" />
    <glyph glyph-name="f_f" unicode="&#xfb00;" horiz-adv-x="1144" 
d="M643 1106q0 125 55 237q-39 33 -89 41q-49 8 -111 8t-111 -36q-97 -74 -115 -201q-12 -61 -12 -111v-106h383v168zM975 1516q120 0 176 -56q8 -10 8 -14l-33 -25q-12 14 -42 34t-111 20q-146 0 -223 -121q-66 -102 -66 -248v-168h379v-41h-379v-885h-41v885h-383v-885
h-41v885h-153v41h153v106q0 144 68 265q80 125 216 125q137 0 216 -54q91 136 256 136z" />
    <glyph glyph-name="uni00660069" unicode="&#xfb01;" horiz-adv-x="931" 
d="M66 938h153v168q0 157 72 270q96 140 260 140q124 0 229 -56q16 -12 17 -14l-33 -25q-18 17 -78 35t-138 18q-145 1 -222 -120q-66 -102 -66 -248v-168h502v-938h-41v897h-461v-897h-41v897h-153v41z" />
    <glyph glyph-name="uni0066006C" unicode="&#xfb02;" horiz-adv-x="1069" 
d="M946 -10q-78 0 -120 50t-42 118v1097q0 139 -137 201q-49 18 -120 18q-133 1 -203 -118q-32 -45 -48 -117t-16 -133v-168h256v-41h-256v-909h-41v909h-153v41h153v168q0 187 70 289q80 121 241 121q129 0 220 -76q75 -70 75 -183v-1099q0 -47 33 -86q31 -43 90 -43
q14 0 43 4l39 6l43 8l19 -39l-13 -4l-35 -6q-58 -8 -98 -8z" />
    <glyph glyph-name="f_f_i" unicode="&#xfb03;" horiz-adv-x="1355" 
d="M643 1106q0 125 55 237q-39 33 -89 41q-49 8 -111 8t-111 -36q-97 -74 -115 -201q-12 -61 -12 -111v-106h383v168zM975 1516q124 0 229 -56q16 -12 17 -14l-33 -25q-18 17 -78 35t-138 18q-145 1 -222 -120q-66 -102 -66 -248v-168h502v-938h-41v897h-461v-897h-41v897
h-383v-897h-41v897h-153v41h153v106q0 144 68 265q80 125 216 125q137 0 216 -54q91 136 256 136z" />
    <glyph glyph-name="f_f_l" unicode="&#xfb04;" horiz-adv-x="1503" 
d="M653 1106q0 129 43 240q-37 30 -78 38q-132 24 -196 -12q-65 -37 -98 -86q-64 -85 -64 -221v-127h393v168zM965 1516q130 0 219 -76q74 -69 76 -183v-1099q0 -47 32 -86q31 -43 90 -43q14 0 43 4l39 6l43 8l19 -39q-26 -4 -47 -10l-45 -6q-19 -2 -54 -2q-78 0 -120 50
t-41 118v1097q0 94 -60 150q-69 69 -200 70t-201 -119q-31 -45 -47 -117t-17 -133v-168h256v-41h-256v-909h-41v909h-393v-909h-41v909h-153v41h153v127q0 80 21 143q60 226 311 226q95 0 166 -52q81 134 248 134z" />
    <glyph glyph-name="s_t" unicode="&#xfb06;" horiz-adv-x="1572" 
d="M1221 154q0 -60 45 -92t117 -32t153 52l23 -33q-1 -4 -17 -12t-25 -13q-61 -34 -146 -34t-138 45t-53 119v868h-154v41h154q0 133 -6 219q-10 84 -31 133q-25 49 -66 68q-43 18 -113 18q-138 0 -206 -63q-54 -54 -55 -144q-2 -138 65 -262q20 -47 40 -77t17 -29l-37 -17
q-74 129 -297 129q-224 0 -311 -129q-28 -51 -28 -126t38 -123t101 -75q64 -28 161 -34q98 -6 166 -14t132 -36q150 -65 151 -225q0 -84 -37 -141q-113 -155 -356 -155t-412 167l31 27q166 -154 377 -154q134 0 245 62t111 198q0 193 -281 220q-83 8 -115 9t-102 14
q-253 46 -251 261q1 84 35 142q92 154 348 153q141 0 245 -61l-26 61q-51 91 -51 193q0 270 299 270q175 0 225 -119q35 -80 35 -360h256v-41h-256v-868z" />
    <glyph glyph-name="A.sc" horiz-adv-x="1187" 
d="M885 428l-291 621l-293 -621h584zM612 1106l516 -1106h-45l-182 389h-614l-185 -389h-45l518 1106h37z" />
    <glyph glyph-name="B.sc" horiz-adv-x="1157" 
d="M926 117q75 80 75 178q0 99 -69 168q-79 74 -178 76h-525v-500h512q107 0 185 78zM229 578h478q99 0 176 77q67 71 67 166q0 45 -17 92q-33 90 -122 134q-43 18 -94 18h-488v-487zM1042 287q0 -55 -22 -111q-23 -47 -66 -90q-86 -86 -213 -86h-553v1106h533q61 0 115 -26
q99 -48 137 -154q18 -53 18 -122q0 -68 -44 -134t-126 -103q102 -29 162 -106q59 -78 59 -174z" />
    <glyph glyph-name="C.sc" horiz-adv-x="1226" 
d="M109 560q0 217 155 384q155 168 408 168q160 0 270 -70t166 -172l-39 -16q-59 107 -178 167q-98 50 -225 50q-128 0 -224 -47q-187 -91 -258 -283q-72 -192 6 -385q39 -94 111 -167q156 -158 369 -158q208 0 344 127q49 43 84 102l37 -12q-33 -66 -82 -111
q-108 -99 -250 -129q-70 -18 -166 -18t-197 51q-210 103 -292 315q-40 102 -39 204z" />
    <glyph glyph-name="D.sc" horiz-adv-x="1247" 
d="M573 1065h-344v-1026h344q127 0 227 42q292 122 292 471q0 228 -134 370q-143 143 -385 143zM188 1106h385q271 0 416 -156q146 -156 146 -401t-152 -397q-161 -152 -410 -152h-385v1106z" />
    <glyph glyph-name="E.sc" horiz-adv-x="1083" 
d="M188 0v1106h770v-41h-729v-481h639v-39h-639v-506h744v-39h-785z" />
    <glyph glyph-name="F.sc" horiz-adv-x="1040" 
d="M956 1106v-41h-727v-479h621v-41h-621v-545h-41v1106h768z" />
    <glyph glyph-name="G.alt" horiz-adv-x="1525" 
d="M774 -10q-142 0 -262 63q-125 61 -213 166q-90 101 -140 233t-50 275t54 279q109 275 357 399q124 59 238 59t200 -22q245 -75 381 -299l-28 -29q-84 137 -220 223t-291 86q-295 0 -474 -219q-84 -98 -130 -225t-46 -258t47 -255q97 -256 333 -376q119 -59 254 -59
q134 0 240 50q214 101 324 327q51 106 67 225h-504v41h549v-19q-4 -8 -4 -24q-16 -129 -74 -245q-122 -241 -348 -343q-118 -53 -260 -53z" />
    <glyph glyph-name="G.sc" horiz-adv-x="1267" 
d="M1096 489h-279v39h320v-528h-41v184q-184 -192 -425 -192t-405 178q-78 80 -118 182t-39 204q0 102 41 204q84 213 284 305q100 47 217 47q185 0 291 -67t166 -173l-39 -16q-119 217 -418 217q-119 0 -212 -46q-182 -90 -254 -286t5 -385q39 -92 112 -165
q158 -158 383 -158t411 205v251z" />
    <glyph glyph-name="H.sc" horiz-adv-x="1275" 
d="M1047 0v545h-818v-545h-41v1106h41v-520h818v520h40v-1106h-40z" />
    <glyph glyph-name="I.sc" horiz-adv-x="417" 
d="M229 1104v-1104h-41v1104h41z" />
    <glyph glyph-name="J.sc" horiz-adv-x="849" 
d="M300 23q122 1 186 35q121 67 141 266q8 84 8 219v561h41v-561q0 -117 -11 -225q-23 -221 -155 -293q-68 -41 -206 -41t-243 67l21 33q96 -61 218 -61z" />
    <glyph glyph-name="K.sc" horiz-adv-x="1097" 
d="M229 1104v-707l750 709h57l-508 -483l531 -623h-51l-508 594l-271 -250v-344h-41v1104h41z" />
    <glyph glyph-name="L.sc" horiz-adv-x="1038" 
d="M229 1106v-1067h744v-39h-785v1106h41z" />
    <glyph glyph-name="M.sc" horiz-adv-x="1529" 
d="M229 0h-41v1106h35l543 -838l541 838h34v-1106h-41v1020l-520 -803h-30l-521 803v-1020z" />
    <glyph glyph-name="N.sc" horiz-adv-x="1349" 
d="M188 0v1106h31l901 -1043v1041h41v-1104h-45l-887 1026v-1026h-41z" />
    <glyph glyph-name="O.sc" horiz-adv-x="1327" 
d="M150 550q0 -102 40 -196t107 -161q147 -160 368 -160t367 159t146 361q0 103 -40 197t-106 165q-158 158 -366 158q-117 0 -212 -46t-161 -118q-143 -156 -143 -359zM661 -8q-121 0 -221 47q-208 97 -290 307q-41 104 -41 211t43 208q42 101 118 179q163 168 397 168
q233 0 400 -176q152 -168 152 -383q0 -109 -42 -212t-116 -179q-170 -170 -400 -170z" />
    <glyph glyph-name="P.sc" horiz-adv-x="1087" 
d="M229 471h457q126 0 209 94q33 37 54 91q44 113 -1 223q-54 114 -157 161q-55 25 -117 25h-445v-594zM188 1106h486q70 0 137 -29q123 -62 176 -186q25 -61 25 -123q0 -136 -93 -237t-233 -101h-457v-430h-41v1106z" />
    <glyph glyph-name="Q.sc" horiz-adv-x="1327" 
d="M1178 553q0 103 -40 197t-106 165q-158 158 -366 158q-117 0 -212 -46q-183 -88 -268 -284q-76 -198 2 -385q41 -98 109 -165q147 -160 369 -160q180 0 319 114l-127 150h49l107 -125q164 164 164 381zM109 557q0 107 43 208q42 101 118 179q163 168 397 168
q233 0 400 -176q152 -168 152 -383q1 -115 -47 -225t-132 -187l121 -141h-49l-100 117q-154 -125 -346 -125q-126 0 -226 47q-208 97 -290 307q-41 104 -41 211z" />
    <glyph glyph-name="R.sc" horiz-adv-x="1132" 
d="M229 471h457q68 0 118 25q105 52 147 162q43 109 -3 221q-23 53 -61 96q-90 90 -213 90h-445v-594zM188 1106h488q72 0 132 -29q125 -60 181 -186q25 -61 25 -125q0 -127 -84 -223t-217 -109l301 -434h-49l-299 430h-437v-430h-41v1106z" />
    <glyph glyph-name="S.sc" horiz-adv-x="1075" 
d="M940 268q0 57 -22 103q-51 83 -195 125q-66 18 -175 38t-183 39q-74 18 -123 52q-105 65 -105 199t114 211t304 77q225 0 356 -131l-24 -31q-72 72 -146 99t-184 26q-201 -1 -290 -71t-89 -183t88 -166q66 -41 231 -73q165 -30 237 -50q160 -43 218 -137q29 -51 29 -123
q0 -137 -113 -209q-114 -71 -282 -71t-279 41t-211 129l29 28q175 -163 438 -163q168 0 275 59q102 59 102 182z" />
    <glyph glyph-name="T.sc" horiz-adv-x="1073" 
d="M559 0h-41v1065h-455v41h949v-41h-453v-1065z" />
    <glyph glyph-name="U.sc" horiz-adv-x="1314" 
d="M1106 1106h41v-553q0 -388 -258 -514q-97 -47 -235 -47t-231 47t-151 128t-79 181q-25 102 -25 205v553h41v-553q0 -226 94 -358q116 -162 357 -162t354 164q90 128 92 356v553z" />
    <glyph glyph-name="V.sc" horiz-adv-x="1191" 
d="M1090 1106h45l-519 -1106h-43l-516 1106h43l496 -1053z" />
    <glyph glyph-name="W.alt" horiz-adv-x="2103" 
d="M1530 0l-488 1389l-469 -1389h-45l-469 1454h43l449 -1403l467 1403h45l489 -1403l447 1403h45l-469 -1454h-45z" />
    <glyph glyph-name="W.sc" horiz-adv-x="1798" 
d="M897 684l193 412h43l-213 -455l280 -590l496 1055h45l-518 -1106h-43l-281 598l-281 -598h-43l-518 1106h45l496 -1055l276 590l-210 455h43z" />
    <glyph glyph-name="X.sc" horiz-adv-x="1095" 
d="M1001 1106h52l-480 -561l465 -545h-49l-440 512l-440 -512h-52l465 545l-479 561h51l455 -528z" />
    <glyph glyph-name="Y.sc" horiz-adv-x="1099" 
d="M569 0h-41v428l-479 678h47l453 -637l457 637h47l-484 -680v-426z" />
    <glyph glyph-name="Z.sc" horiz-adv-x="1107" 
d="M86 1065v41h944v-39l-901 -1028h895v-39h-946v39l901 1026h-893z" />
    <glyph glyph-name="a.alt" horiz-adv-x="1243" 
d="M137 526q0 -197 131 -350q63 -74 148 -113q82 -43 174 -43q168 0 280 97q109 86 162 225v377q-92 221 -289 295q-67 24 -157 24q-176 -1 -322 -164q-127 -151 -127 -348zM616 -20q-234 0 -378 172q-142 163 -142 376q0 106 41 210t109 177q140 164 378 164q126 1 235 -77
q110 -78 173 -189v246h41v-1059h-41v244q-66 -117 -178 -191q-113 -73 -238 -73z" />
    <glyph glyph-name="a.alt2" horiz-adv-x="1071" 
d="M516 567q-255 0 -358 -137q-39 -51 -39 -121q0 -128 88 -208q88 -79 209 -80q120 -1 208 32q157 59 218 156q31 45 30 84v211q-162 63 -356 63zM156 940q193 139 368 139q96 0 170 -30q145 -69 195 -218q25 -76 24 -161v-670h-41v180q-84 -106 -204 -153t-220 -47
q-246 0 -344 198q-26 55 -26 135q1 149 151 230q126 65 313 65t330 -59v121q0 251 -204 342q-61 27 -144 26q-160 0 -344 -131z" />
    <glyph glyph-name="uni00630074" horiz-adv-x="1693" 
d="M895 985q-113 161 -113 281t72 198t217 78q100 0 156 -37q108 -76 110 -239q4 -106 4 -162v-41h256v-41h-256v-868q0 -60 45 -92q72 -52 166 -23q63 14 83 28q20 15 22 15l22 -33q-94 -59 -183 -59t-142 45t-54 119v868h-153v41h153v92q0 156 -34 236q-25 47 -72 79
q-50 31 -122 31q-131 0 -191 -67q-31 -31 -44 -69q-33 -95 10 -212q42 -117 116 -231q29 -49 43 -80l-39 -15q-55 105 -164 164q-92 47 -205 47q-206 0 -340 -161q-121 -156 -121 -352t137 -349q68 -74 149 -115t155 -41q147 0 256 62q118 62 147 162l41 -13
q-41 -119 -168 -186q-112 -65 -235 -65q-232 0 -379 174q-66 74 -105 177t-39 205t36 199q76 206 261 299q91 45 189 45t182 -22q78 -25 131 -72z" />
    <glyph glyph-name="caron.alt" horiz-adv-x="405" 
d="M233 1495h70l-168 -174l-33 25z" />
    <glyph glyph-name="d.alt" horiz-adv-x="1234" 
d="M137 526q0 -197 137 -350q68 -76 152 -116t164 -40q151 0 287 99q59 41 101 100t46 127v383q-39 118 -174 219q-133 92 -247 91q-115 -1 -200 -44q-170 -97 -234 -279q-32 -90 -32 -190zM590 1079q251 0 434 -264v680h41v-1495h-41v221q-105 -166 -295 -225
q-61 -16 -144 -16t-177 45t-164 123q-148 166 -148 384t142 381q59 72 151 119t201 47z" />
    <glyph glyph-name="eight.lnum" horiz-adv-x="1208" 
d="M907 119q142 115 142 279t-148 266q-135 96 -299 96q-165 0 -303 -103q-61 -47 -101 -117t-40 -154q0 -168 147 -269q136 -97 301 -97q80 0 160 25q78 29 141 74zM211 1104q0 -74 37 -129q33 -57 90 -94q123 -80 268 -80t260 82q131 91 129 225q0 74 -32 131
q-72 111 -218 154q-69 20 -145 20q-76 -1 -148 -23q-141 -44 -208 -155q-33 -57 -33 -131zM1090 374q0 -167 -148 -282q-147 -108 -354 -107t-340 124q-61 53 -96 128t-35 151q0 146 103 253q103 108 233 139q-117 41 -200 122t-83 206q0 155 131 252q131 96 305 95
q175 -1 295 -89q135 -104 135 -258q0 -57 -22 -113q-70 -147 -262 -215q227 -69 313 -258q25 -65 25 -148z" />
    <glyph glyph-name="five.lnum" horiz-adv-x="1144" 
d="M193 748q151 163 364 163t350 -127q138 -134 137 -338t-143 -335q-63 -61 -150 -97t-179 -34q-162 1 -285 83q-124 86 -183 216h46q54 -115 166 -187t226 -72t196 33q163 66 231 226q35 80 35 175q0 183 -126 301q-126 117 -305 115q-119 0 -223 -52t-170 -148h-49
q0 6 6 26t8 35l21 103q3 8 23 112q62 322 102 508h690v-41h-655z" />
    <glyph glyph-name="four.lnum" horiz-adv-x="1136" 
d="M840 473v905l-731 -905h731zM51 432v35l801 987h29v-981h180v-41h-180v-432h-41v432h-789z" />
    <glyph glyph-name="j.alt" horiz-adv-x="380" 
d="M211 -436h-41v1495h41v-1495zM211 1337h-41v131h41v-131z" />
    <glyph glyph-name="l.alt" horiz-adv-x="413" 
d="M227 0h-41v1495h41v-1495z" />
    <glyph glyph-name="nine.lnum" horiz-adv-x="1239" 
d="M598 1423q-92 1 -177 -35q-171 -71 -247 -241q-35 -86 -35 -178t38 -176q38 -85 98 -145q61 -60 145 -98t180 -38q187 0 326 137q61 61 98 145t37 176q0 183 -137 320q-63 61 -148 99q-86 34 -178 34zM246 1319q145 145 361 145t361 -151q146 -151 146 -403
q0 -470 -143 -709q-72 -115 -164 -166q-95 -55 -227 -55t-244 80t-160 221l39 14q18 -63 57 -111q78 -108 199 -143q55 -21 142 -21t173 52t152 156q131 212 131 585q-50 -151 -180 -248q-132 -94 -295 -94q-204 -1 -350 145t-146 353q0 206 148 350z" />
    <glyph glyph-name="one.lnum" horiz-adv-x="741" 
d="M131 12v29h270v1366q-16 -25 -77 -74t-130 -75q-69 -27 -110 -27v41q87 0 211 98q45 37 76 70l30 35h41v-1434h260v-29h-571z" />
    <glyph glyph-name="q.alt" horiz-adv-x="1234" 
d="M581 20q149 0 263 89t180 221v383q-12 122 -147 227q-123 98 -285 98q-88 0 -174 -44q-172 -88 -246 -279q-35 -93 -35 -189t35 -189q74 -197 238 -274q82 -43 171 -43zM96 528q0 104 42 208q83 207 272 298q90 45 176 45q147 0 262 -69q121 -79 176 -172v225h41v-1499
h-41v680q-183 -264 -434 -264q-216 0 -355 167q-139 168 -139 381z" />
    <glyph glyph-name="seven.lnum" horiz-adv-x="1009" 
d="M63 1454h943l-746 -1454h-47l725 1413h-875v41z" />
    <glyph glyph-name="six.lnum" horiz-adv-x="1239" 
d="M643 20q94 0 176 35q171 73 246 244q35 86 35 178q0 181 -137 320q-141 135 -326 135t-322 -135q-137 -137 -137 -322q0 -90 37 -174t100 -147q66 -61 148 -99q86 -35 180 -35zM125 536q0 254 38 424q75 338 269 451q96 53 228 53t245 -80q111 -82 158 -221l-39 -14
q-18 59 -55 113q-81 101 -199 143q-61 18 -146 18t-173 -52q-87 -52 -149 -151q-132 -212 -132 -589q50 153 180 248q132 94 295 94q206 0 351 -146t145 -351t-146 -351q-156 -147 -368 -146t-357 152q-145 152 -145 405z" />
    <glyph glyph-name="t.alt" horiz-adv-x="557" 
d="M57 1022v41h154v436h41v-436h256v-41h-256v-1022h-41v1022h-154z" />
    <glyph glyph-name="three.lnum" horiz-adv-x="1206" 
d="M1047 370q0 78 -36 141q-75 133 -261 181q-92 25 -205 25h-72v41h72q225 0 343 79t118 230q0 80 -31 147q-37 70 -90 115q-132 103 -290 103t-267 -65t-152 -171l-37 16q25 59 68 109q143 149 373 152q195 0 335 -115q132 -119 132 -291q0 -256 -295 -332
q152 -30 245 -131q91 -104 90 -253t-137 -259t-342 -110t-348 106q-137 107 -145 272h41q8 -142 137 -241q57 -43 142 -70q173 -55 349 -2q86 31 140 73t89 107q34 65 34 143z" />
    <glyph glyph-name="two.lnum" horiz-adv-x="1163" 
d="M113 12q-4 0 -4 60q0 228 122 379q100 127 293 202q78 31 158 60q191 69 270 188q45 63 45 149t-22 152q-57 143 -195 199q-78 31 -175 31q-174 0 -294 -89q-55 -39 -86 -75t-59 -74l-35 20q0 2 29 43q74 105 237 177q85 39 201 39q222 0 336 -127q104 -118 104 -300
q0 -96 -52 -170q-90 -128 -288 -200q-249 -81 -345 -164q-95 -82 -136 -154t-54 -140t-13 -110q0 -40 2 -47v-20h888v-41h-927v12z" />
    <glyph glyph-name="u.alt" horiz-adv-x="1173" 
d="M199 467q-1 -447 299 -447q168 0 299 113q124 112 166 254v676h41v-1063h-41v270q-67 -131 -191 -209q-55 -37 -129 -59q-61 -22 -155 -22t-162 43q-131 82 -156 270q-12 86 -12 174v596h41v-596z" />
    <glyph glyph-name="w.alt" horiz-adv-x="1638" 
d="M481 0h-37l-381 1063h46l354 -1002l334 1002h45l334 -1002l354 1002h45l-381 -1063h-37l-338 1010z" />
    <glyph glyph-name="y.alt" horiz-adv-x="1105" 
d="M365 -436l180 436l-494 1063h45l469 -1012l445 1012h45l-654 -1499h-36z" />
    <glyph glyph-name="zero.lnum" horiz-adv-x="1388" 
d="M1231 721q0 119 -37 243q-76 256 -274 386q-100 63 -230 63q-238 0 -397 -237q-67 -100 -101 -226q-66 -241 10 -490q75 -249 267 -376q94 -64 226 -64q241 -1 401 238q135 197 135 463zM117 720q0 126 41 260q86 281 297 409q109 65 247 65q251 -1 424 -250
q146 -221 146 -494t-154 -493q-168 -229 -424 -237q-141 2 -252 74t-178 175q-147 217 -147 491z" />
    </font>
</defs>
</svg>
